<?xml version="1.0" encoding="UTF-8" standalone="no"?>
<svg
   xmlns:dc="http://purl.org/dc/elements/1.1/"
   xmlns:cc="http://creativecommons.org/ns#"
   xmlns:rdf="http://www.w3.org/1999/02/22-rdf-syntax-ns#"
   xmlns:svg="http://www.w3.org/2000/svg"
   xmlns="http://www.w3.org/2000/svg"
   viewBox="0 0 822.66669 920"
   height="920"
   width="822.66669"
   xml:space="preserve"
   id="svg2"
   version="1.1"><metadata
     id="metadata8"><rdf:RDF><cc:Work
         rdf:about=""><dc:format>image/svg+xml</dc:format><dc:type
           rdf:resource="http://purl.org/dc/dcmitype/StillImage" /></cc:Work></rdf:RDF></metadata><defs
     id="defs6"><clipPath
       id="clipPath20"
       clipPathUnits="userSpaceOnUse"><path
         style="clip-rule:evenodd"
         id="path18"
         d="M 38.3516,6892.36 H 6161.65 V 11.9766 H 38.3516 Z" /></clipPath><radialGradient
       id="radialGradient28"
       gradientTransform="matrix(10,0,0,10,40,70)"
       gradientUnits="userSpaceOnUse"
       r="0"
       cy="248.772"
       cx="275.384"
       fy="248.772"
       fx="275.384"><stop
         id="stop22"
         offset="0"
         style="stop-opacity:1;stop-color:#231f20" /><stop
         id="stop24"
         offset="0.54596843"
         style="stop-opacity:1;stop-color:#231f20" /><stop
         id="stop26"
         offset="1"
         style="stop-opacity:1;stop-color:#f47216" /></radialGradient><clipPath
       id="clipPath38"
       clipPathUnits="userSpaceOnUse"><path
         style="clip-rule:evenodd"
         id="path36"
         d="m 1920.88,6086.28 c 381.76,-911.46 734.9,-1842.01 1059.4,-2791.66 -392.51,910.87 -743.25,1842.62 -1059.4,2791.66 z" /></clipPath><radialGradient
       id="radialGradient44"
       gradientTransform="matrix(10,0,0,10,40,70)"
       gradientUnits="userSpaceOnUse"
       r="0"
       cy="425.754"
       cx="235.761"
       fy="425.754"
       fx="235.761"><stop
         id="stop40"
         offset="0"
         style="stop-opacity:1;stop-color:#231f20" /><stop
         id="stop42"
         offset="1"
         style="stop-opacity:1;stop-color:#d26112" /></radialGradient><clipPath
       id="clipPath54"
       clipPathUnits="userSpaceOnUse"><path
         style="clip-rule:evenodd"
         id="path52"
         d="M 1454.7,5860.13 C 1988.94,5028.8 2498.3,4173.71 2982.77,3294.84 2438.05,4123.71 1930.84,4980.4 1454.7,5860.13 Z" /></clipPath><radialGradient
       id="radialGradient60"
       gradientTransform="matrix(10,0,0,10,40,70)"
       gradientUnits="userSpaceOnUse"
       r="0"
       cy="417.39899"
       cx="210.233"
       fy="417.39899"
       fx="210.233"><stop
         id="stop56"
         offset="0"
         style="stop-opacity:1;stop-color:#231f20" /><stop
         id="stop58"
         offset="1"
         style="stop-opacity:1;stop-color:#d26112" /></radialGradient><clipPath
       id="clipPath70"
       clipPathUnits="userSpaceOnUse"><path
         style="clip-rule:evenodd"
         id="path68"
         d="M 1034.86,5556.45 C 1705.35,4830.52 2355.45,4076.88 2985.18,3295.49 2304.82,4017.18 1656.54,4772.77 1034.86,5556.45 Z" /></clipPath><radialGradient
       id="radialGradient76"
       gradientTransform="matrix(10,0,0,10,40,70)"
       gradientUnits="userSpaceOnUse"
       r="0"
       cy="406.20401"
       cx="187.25101"
       fy="406.20401"
       fx="187.25101"><stop
         id="stop72"
         offset="0"
         style="stop-opacity:1;stop-color:#231f20" /><stop
         id="stop74"
         offset="1"
         style="stop-opacity:1;stop-color:#d26112" /></radialGradient><clipPath
       id="clipPath86"
       clipPathUnits="userSpaceOnUse"><path
         style="clip-rule:evenodd"
         id="path84"
         d="M 674.152,5184.49 C 1460.5,4586.02 2231.59,3956.71 2987.44,3296.54 2192.09,3889.13 1422.46,4520.67 674.152,5184.49 Z" /></clipPath><radialGradient
       id="radialGradient92"
       gradientTransform="matrix(10,0,0,10,40,70)"
       gradientUnits="userSpaceOnUse"
       r="0"
       cy="390.62"
       cx="167.513"
       fy="390.62"
       fx="167.513"><stop
         id="stop88"
         offset="0"
         style="stop-opacity:1;stop-color:#231f20" /><stop
         id="stop90"
         offset="1"
         style="stop-opacity:1;stop-color:#d26112" /></radialGradient><clipPath
       id="clipPath102"
       clipPathUnits="userSpaceOnUse"><path
         style="clip-rule:evenodd"
         id="path100"
         d="M 383.504,4755.55 C 1261.82,4302.71 2130.49,3816.86 2989.48,3297.98 2103.32,3743.45 1235.71,4231.76 383.504,4755.55 Z" /></clipPath><radialGradient
       id="radialGradient108"
       gradientTransform="matrix(10,0,0,10,40,70)"
       gradientUnits="userSpaceOnUse"
       r="0"
       cy="376.728"
       cx="151.619"
       fy="376.728"
       fx="151.619"><stop
         id="stop104"
         offset="0"
         style="stop-opacity:1;stop-color:#231f20" /><stop
         id="stop106"
         offset="1"
         style="stop-opacity:1;stop-color:#d26112" /></radialGradient><clipPath
       id="clipPath118"
       clipPathUnits="userSpaceOnUse"><path
         style="clip-rule:evenodd"
         id="path116"
         d="M 171.758,4282.64 C 1115.37,3989.21 2055.2,3661.57 2991.25,3299.75 2041.19,3584.57 1101.98,3914.79 171.758,4282.64 Z" /></clipPath><radialGradient
       id="radialGradient124"
       gradientTransform="matrix(10,0,0,10,40,70)"
       gradientUnits="userSpaceOnUse"
       r="0"
       cy="359.34201"
       cx="140.05299"
       fy="359.34201"
       fx="140.05299"><stop
         id="stop120"
         offset="0"
         style="stop-opacity:1;stop-color:#231f20" /><stop
         id="stop122"
         offset="1"
         style="stop-opacity:1;stop-color:#d26112" /></radialGradient><clipPath
       id="clipPath134"
       clipPathUnits="userSpaceOnUse"><path
         style="clip-rule:evenodd"
         id="path132"
         d="M 45.3438,3780.15 C 1025.57,3655.04 2008.02,3495.59 2992.69,3301.79 2007.59,3417.31 1025.31,3579.42 45.3438,3780.15 Z" /></clipPath><radialGradient
       id="radialGradient140"
       gradientTransform="matrix(10,0,0,10,40,70)"
       gradientUnits="userSpaceOnUse"
       r="0"
       cy="340.39999"
       cx="133.16499"
       fy="340.39999"
       fx="133.16499"><stop
         id="stop136"
         offset="0"
         style="stop-opacity:1;stop-color:#231f20" /><stop
         id="stop138"
         offset="1"
         style="stop-opacity:1;stop-color:#d26112" /></radialGradient><clipPath
       id="clipPath150"
       clipPathUnits="userSpaceOnUse"><path
         style="clip-rule:evenodd"
         id="path148"
         d="M 8.10938,3263.34 C 995.172,3310.36 1990.39,3323.92 2993.74,3304.05 2003.56,3246.76 1008.04,3235.84 8.10938,3263.34 Z" /></clipPath><radialGradient
       id="radialGradient156"
       gradientTransform="matrix(10,0,0,10,40,70)"
       gradientUnits="userSpaceOnUse"
       r="0"
       cy="320.19501"
       cx="131.164"
       fy="320.19501"
       fx="131.164"><stop
         id="stop152"
         offset="0"
         style="stop-opacity:1;stop-color:#231f20" /><stop
         id="stop154"
         offset="1"
         style="stop-opacity:1;stop-color:#d26112" /></radialGradient><clipPath
       id="clipPath166"
       clipPathUnits="userSpaceOnUse"><path
         style="clip-rule:evenodd"
         id="path164"
         d="M 61.1875,2747.93 C 1025.09,2965.62 2002.83,3151.8 2994.38,3306.46 2029.2,3078.09 1050.7,2894.48 61.1875,2747.93 Z" /></clipPath><radialGradient
       id="radialGradient172"
       gradientTransform="matrix(10,0,0,10,40,70)"
       gradientUnits="userSpaceOnUse"
       r="0"
       cy="289.01801"
       cx="134.11301"
       fy="289.01801"
       fx="134.11301"><stop
         id="stop168"
         offset="0"
         style="stop-opacity:1;stop-color:#231f20" /><stop
         id="stop170"
         offset="1"
         style="stop-opacity:1;stop-color:#d26112" /></radialGradient><clipPath
       id="clipPath182"
       clipPathUnits="userSpaceOnUse"><path
         style="clip-rule:evenodd"
         id="path180"
         d="M 202.957,2249.55 C 1114.41,2631.33 2044.96,2984.46 2994.6,3308.95 2083.73,2916.45 1151.99,2565.7 202.957,2249.55 Z" /></clipPath><radialGradient
       id="radialGradient188"
       gradientTransform="matrix(10,0,0,10,40,70)"
       gradientUnits="userSpaceOnUse"
       r="0"
       cy="257.15302"
       cx="141.92"
       fy="257.15302"
       fx="141.92"><stop
         id="stop184"
         offset="0"
         style="stop-opacity:1;stop-color:#231f20" /><stop
         id="stop186"
         offset="1"
         style="stop-opacity:1;stop-color:#d26112" /></radialGradient><clipPath
       id="clipPath198"
       clipPathUnits="userSpaceOnUse"><path
         style="clip-rule:evenodd"
         id="path196"
         d="M 429.105,1783.38 C 1260.43,2317.62 2115.52,2826.98 2994.38,3311.43 2165.52,2766.73 1308.83,2259.52 429.105,1783.38 Z" /></clipPath><radialGradient
       id="radialGradient204"
       gradientTransform="matrix(10,0,0,10,40,70)"
       gradientUnits="userSpaceOnUse"
       r="0"
       cy="227.87601"
       cx="154.34801"
       fy="227.87601"
       fx="154.34801"><stop
         id="stop200"
         offset="0"
         style="stop-opacity:1;stop-color:#231f20" /><stop
         id="stop202"
         offset="1"
         style="stop-opacity:1;stop-color:#d26112" /></radialGradient><clipPath
       id="clipPath214"
       clipPathUnits="userSpaceOnUse"><path
         style="clip-rule:evenodd"
         id="path212"
         d="M 732.781,1363.54 C 1458.71,2034.03 2212.36,2684.13 2993.74,3313.85 2272.05,2633.5 1516.46,1985.21 732.781,1363.54 Z" /></clipPath><radialGradient
       id="radialGradient220"
       gradientTransform="matrix(10,0,0,10,40,70)"
       gradientUnits="userSpaceOnUse"
       r="0"
       cy="201.515"
       cx="171.021"
       fy="201.515"
       fx="171.021"><stop
         id="stop216"
         offset="0"
         style="stop-opacity:1;stop-color:#231f20" /><stop
         id="stop218"
         offset="1"
         style="stop-opacity:1;stop-color:#d26112" /></radialGradient><clipPath
       id="clipPath230"
       clipPathUnits="userSpaceOnUse"><path
         style="clip-rule:evenodd"
         id="path228"
         d="M 1104.74,1002.83 C 1703.2,1789.17 2332.53,2560.27 2992.69,3316.12 2400.1,2520.77 1768.56,1751.14 1104.74,1002.83 Z" /></clipPath><radialGradient
       id="radialGradient236"
       gradientTransform="matrix(10,0,0,10,40,70)"
       gradientUnits="userSpaceOnUse"
       r="0"
       cy="178.875"
       cx="191.43201"
       fy="178.875"
       fx="191.43201"><stop
         id="stop232"
         offset="0"
         style="stop-opacity:1;stop-color:#231f20" /><stop
         id="stop234"
         offset="1"
         style="stop-opacity:1;stop-color:#d26112" /></radialGradient><clipPath
       id="clipPath246"
       clipPathUnits="userSpaceOnUse"><path
         style="clip-rule:evenodd"
         id="path244"
         d="M 1533.69,712.184 C 1986.52,1590.5 2472.37,2459.17 2991.25,3318.15 2545.78,2432 2057.48,1564.39 1533.69,712.184 Z" /></clipPath><radialGradient
       id="radialGradient252"
       gradientTransform="matrix(10,0,0,10,40,70)"
       gradientUnits="userSpaceOnUse"
       r="0"
       cy="160.63901"
       cx="214.959"
       fy="160.63901"
       fx="214.959"><stop
         id="stop248"
         offset="0"
         style="stop-opacity:1;stop-color:#231f20" /><stop
         id="stop250"
         offset="1"
         style="stop-opacity:1;stop-color:#d26112" /></radialGradient><clipPath
       id="clipPath262"
       clipPathUnits="userSpaceOnUse"><path
         style="clip-rule:evenodd"
         id="path260"
         d="M 2006.59,500.434 C 2300.01,1444.05 2627.65,2383.88 2989.49,3319.92 2704.66,2369.87 2374.45,1430.66 2006.59,500.434 Z" /></clipPath><radialGradient
       id="radialGradient268"
       gradientTransform="matrix(10,0,0,10,40,70)"
       gradientUnits="userSpaceOnUse"
       r="0"
       cy="147.364"
       cx="241.873"
       fy="147.364"
       fx="241.873"><stop
         id="stop264"
         offset="0"
         style="stop-opacity:1;stop-color:#231f20" /><stop
         id="stop266"
         offset="1"
         style="stop-opacity:1;stop-color:#d26112" /></radialGradient><clipPath
       id="clipPath278"
       clipPathUnits="userSpaceOnUse"><path
         style="clip-rule:evenodd"
         id="path276"
         d="m 2509.09,374.02 c 125.1,980.23 284.55,1962.68 478.36,2947.34 C 2871.92,2336.27 2709.81,1353.99 2509.09,374.02 Z" /></clipPath><radialGradient
       id="radialGradient284"
       gradientTransform="matrix(10,0,0,10,40,70)"
       gradientUnits="userSpaceOnUse"
       r="0"
       cy="139.453"
       cx="268.91299"
       fy="139.453"
       fx="268.91299"><stop
         id="stop280"
         offset="0"
         style="stop-opacity:1;stop-color:#231f20" /><stop
         id="stop282"
         offset="1"
         style="stop-opacity:1;stop-color:#d26112" /></radialGradient><clipPath
       id="clipPath294"
       clipPathUnits="userSpaceOnUse"><path
         style="clip-rule:evenodd"
         id="path292"
         d="m 3025.89,336.789 c -47.02,987.071 -60.58,1982.271 -40.71,2985.621 57.29,-990.17 68.22,-1985.69 40.71,-2985.621 z" /></clipPath><radialGradient
       id="radialGradient300"
       gradientTransform="matrix(10,0,0,10,40,70)"
       gradientUnits="userSpaceOnUse"
       r="0"
       cy="137.147"
       cx="296.065"
       fy="137.147"
       fx="296.065"><stop
         id="stop296"
         offset="0"
         style="stop-opacity:1;stop-color:#231f20" /><stop
         id="stop298"
         offset="1"
         style="stop-opacity:1;stop-color:#d26112" /></radialGradient><clipPath
       id="clipPath310"
       clipPathUnits="userSpaceOnUse"><path
         style="clip-rule:evenodd"
         id="path308"
         d="M 3541.3,389.867 C 3323.61,1353.77 3137.43,2331.5 2982.77,3323.05 3211.14,2357.88 3394.75,1379.38 3541.3,389.867 Z" /></clipPath><radialGradient
       id="radialGradient316"
       gradientTransform="matrix(10,0,0,10,40,70)"
       gradientUnits="userSpaceOnUse"
       r="0"
       cy="140.515"
       cx="319.41101"
       fy="140.515"
       fx="319.41101"><stop
         id="stop312"
         offset="0"
         style="stop-opacity:1;stop-color:#231f20" /><stop
         id="stop314"
         offset="1"
         style="stop-opacity:1;stop-color:#d26112" /></radialGradient><clipPath
       id="clipPath326"
       clipPathUnits="userSpaceOnUse"><path
         style="clip-rule:evenodd"
         id="path324"
         d="M 4039.68,531.633 C 3657.9,1443.09 3304.77,2373.64 2980.29,3323.27 3372.77,2412.41 3723.52,1480.67 4039.68,531.633 Z" /></clipPath><radialGradient
       id="radialGradient332"
       gradientTransform="matrix(10,0,0,10,40,70)"
       gradientUnits="userSpaceOnUse"
       r="0"
       cy="149.45399"
       cx="341.70099"
       fy="149.45399"
       fx="341.70099"><stop
         id="stop328"
         offset="0"
         style="stop-opacity:1;stop-color:#231f20" /><stop
         id="stop330"
         offset="1"
         style="stop-opacity:1;stop-color:#d26112" /></radialGradient><clipPath
       id="clipPath342"
       clipPathUnits="userSpaceOnUse"><path
         style="clip-rule:evenodd"
         id="path340"
         d="M 4505.86,757.785 C 3971.61,1589.11 3462.25,2444.2 2977.8,3323.05 3522.5,2494.19 4029.71,1637.52 4505.86,757.785 Z" /></clipPath><radialGradient
       id="radialGradient348"
       gradientTransform="matrix(10,0,0,10,40,70)"
       gradientUnits="userSpaceOnUse"
       r="0"
       cy="163.69299"
       cx="362.54199"
       fy="163.69299"
       fx="362.54199"><stop
         id="stop344"
         offset="0"
         style="stop-opacity:1;stop-color:#231f20" /><stop
         id="stop346"
         offset="1"
         style="stop-opacity:1;stop-color:#d26112" /></radialGradient><clipPath
       id="clipPath358"
       clipPathUnits="userSpaceOnUse"><path
         style="clip-rule:evenodd"
         id="path356"
         d="M 4925.69,1061.46 C 4255.2,1787.37 3605.1,2541.03 2975.39,3322.42 3655.74,2600.73 4304.02,1845.14 4925.69,1061.46 Z" /></clipPath><radialGradient
       id="radialGradient364"
       gradientTransform="matrix(10,0,0,10,40,70)"
       gradientUnits="userSpaceOnUse"
       r="0"
       cy="182.80099"
       cx="381.302"
       fy="182.80099"
       fx="381.302"><stop
         id="stop360"
         offset="0"
         style="stop-opacity:1;stop-color:#231f20" /><stop
         id="stop362"
         offset="1"
         style="stop-opacity:1;stop-color:#d26112" /></radialGradient><clipPath
       id="clipPath374"
       clipPathUnits="userSpaceOnUse"><path
         style="clip-rule:evenodd"
         id="path372"
         d="M 5286.4,1433.42 C 4500.05,2031.88 3728.95,2661.21 2973.12,3321.36 3768.46,2728.78 4538.09,2097.24 5286.4,1433.42 Z" /></clipPath><radialGradient
       id="radialGradient380"
       gradientTransform="matrix(10,0,0,10,40,70)"
       gradientUnits="userSpaceOnUse"
       r="0"
       cy="204.308"
       cx="397.41"
       fy="204.308"
       fx="397.41"><stop
         id="stop376"
         offset="0"
         style="stop-opacity:1;stop-color:#231f20" /><stop
         id="stop378"
         offset="1"
         style="stop-opacity:1;stop-color:#d26112" /></radialGradient><clipPath
       id="clipPath390"
       clipPathUnits="userSpaceOnUse"><path
         style="clip-rule:evenodd"
         id="path388"
         d="M 5577.05,1862.37 C 4698.72,2315.18 3830.06,2801.04 2971.08,3319.93 3857.23,2874.46 4724.84,2386.16 5577.05,1862.37 Z" /></clipPath><radialGradient
       id="radialGradient396"
       gradientTransform="matrix(10,0,0,10,40,70)"
       gradientUnits="userSpaceOnUse"
       r="0"
       cy="233.16701"
       cx="410.37701"
       fy="233.16701"
       fx="410.37701"><stop
         id="stop392"
         offset="0"
         style="stop-opacity:1;stop-color:#231f20" /><stop
         id="stop394"
         offset="1"
         style="stop-opacity:1;stop-color:#d26112" /></radialGradient><clipPath
       id="clipPath406"
       clipPathUnits="userSpaceOnUse"><path
         style="clip-rule:evenodd"
         id="path404"
         d="m 5788.8,2335.27 c -943.63,293.42 -1883.46,621.06 -2819.49,982.89 950.04,-284.82 1889.26,-615.04 2819.49,-982.89 z" /></clipPath><radialGradient
       id="radialGradient412"
       gradientTransform="matrix(10,0,0,10,40,70)"
       gradientUnits="userSpaceOnUse"
       r="0"
       cy="262.89401"
       cx="419.80801"
       fy="262.89401"
       fx="419.80801"><stop
         id="stop408"
         offset="0"
         style="stop-opacity:1;stop-color:#231f20" /><stop
         id="stop410"
         offset="1"
         style="stop-opacity:1;stop-color:#d26112" /></radialGradient><clipPath
       id="clipPath422"
       clipPathUnits="userSpaceOnUse"><path
         style="clip-rule:evenodd"
         id="path420"
         d="m 5915.21,2837.76 c -980.23,125.1 -1962.68,284.56 -2947.33,478.36 985.07,-115.52 1967.35,-277.63 2947.33,-478.36 z" /></clipPath><radialGradient
       id="radialGradient428"
       gradientTransform="matrix(10,0,0,10,40,70)"
       gradientUnits="userSpaceOnUse"
       r="0"
       cy="293.99701"
       cx="425.418"
       fy="293.99701"
       fx="425.418"><stop
         id="stop424"
         offset="0"
         style="stop-opacity:1;stop-color:#231f20" /><stop
         id="stop426"
         offset="1"
         style="stop-opacity:1;stop-color:#d26112" /></radialGradient><clipPath
       id="clipPath438"
       clipPathUnits="userSpaceOnUse"><path
         style="clip-rule:evenodd"
         id="path436"
         d="m 5952.44,3354.57 c -987.06,-47.02 -1982.28,-60.58 -2985.61,-40.71 990.15,57.29 1985.67,68.22 2985.61,40.71 z" /></clipPath><radialGradient
       id="radialGradient444"
       gradientTransform="matrix(10,0,0,10,40,70)"
       gradientUnits="userSpaceOnUse"
       r="0"
       cy="326.189"
       cx="427.035"
       fy="326.189"
       fx="427.035"><stop
         id="stop440"
         offset="0"
         style="stop-opacity:1;stop-color:#231f20" /><stop
         id="stop442"
         offset="1"
         style="stop-opacity:1;stop-color:#d26112" /></radialGradient><clipPath
       id="clipPath454"
       clipPathUnits="userSpaceOnUse"><path
         style="clip-rule:evenodd"
         id="path452"
         d="m 5899.37,3869.98 c -963.91,-217.69 -1941.65,-403.87 -2933.2,-558.53 965.17,228.36 1943.67,411.98 2933.2,558.53 z" /></clipPath><radialGradient
       id="radialGradient460"
       gradientTransform="matrix(10,0,0,10,40,70)"
       gradientUnits="userSpaceOnUse"
       r="0"
       cy="345.36899"
       cx="424.61099"
       fy="345.36899"
       fx="424.61099"><stop
         id="stop456"
         offset="0"
         style="stop-opacity:1;stop-color:#231f20" /><stop
         id="stop458"
         offset="1"
         style="stop-opacity:1;stop-color:#d26112" /></radialGradient><clipPath
       id="clipPath470"
       clipPathUnits="userSpaceOnUse"><path
         style="clip-rule:evenodd"
         id="path468"
         d="m 5757.59,4368.35 c -911.45,-381.77 -1842,-734.9 -2791.63,-1059.39 910.84,392.49 1842.59,743.24 2791.63,1059.39 z" /></clipPath><radialGradient
       id="radialGradient476"
       gradientTransform="matrix(10,0,0,10,40,70)"
       gradientUnits="userSpaceOnUse"
       r="0"
       cy="363.09399"
       cx="418.22"
       fy="363.09399"
       fx="418.22"><stop
         id="stop472"
         offset="0"
         style="stop-opacity:1;stop-color:#231f20" /><stop
         id="stop474"
         offset="1"
         style="stop-opacity:1;stop-color:#d26112" /></radialGradient><clipPath
       id="clipPath486"
       clipPathUnits="userSpaceOnUse"><path
         style="clip-rule:evenodd"
         id="path484"
         d="M 5531.45,4834.53 C 4700.13,4300.28 3845.03,3790.93 2966.17,3306.48 c 828.86,544.69 1685.54,1051.91 2565.28,1528.05 z" /></clipPath><radialGradient
       id="radialGradient492"
       gradientTransform="matrix(10,0,0,10,40,70)"
       gradientUnits="userSpaceOnUse"
       r="0"
       cy="380.186"
       cx="408.05499"
       fy="380.186"
       fx="408.05499"><stop
         id="stop488"
         offset="0"
         style="stop-opacity:1;stop-color:#231f20" /><stop
         id="stop490"
         offset="1"
         style="stop-opacity:1;stop-color:#d26112" /></radialGradient><clipPath
       id="clipPath502"
       clipPathUnits="userSpaceOnUse"><path
         style="clip-rule:evenodd"
         id="path500"
         d="M 5227.77,5254.37 C 4501.85,4583.88 3748.2,3933.77 2966.82,3304.06 3688.5,3984.42 4444.09,4632.7 5227.77,5254.37 Z" /></clipPath><radialGradient
       id="radialGradient508"
       gradientTransform="matrix(10,0,0,10,40,70)"
       gradientUnits="userSpaceOnUse"
       r="0"
       cy="395.56699"
       cx="394.42401"
       fy="395.56699"
       fx="394.42401"><stop
         id="stop504"
         offset="0"
         style="stop-opacity:1;stop-color:#231f20" /><stop
         id="stop506"
         offset="1"
         style="stop-opacity:1;stop-color:#d26112" /></radialGradient><clipPath
       id="clipPath518"
       clipPathUnits="userSpaceOnUse"><path
         style="clip-rule:evenodd"
         id="path516"
         d="M 4855.8,5615.08 C 4257.35,4828.72 3628.03,4057.63 2967.87,3301.79 3560.45,4097.14 4191.98,4866.77 4855.8,5615.08 Z" /></clipPath><radialGradient
       id="radialGradient524"
       gradientTransform="matrix(10,0,0,10,40,70)"
       gradientUnits="userSpaceOnUse"
       r="0"
       cy="408.771"
       cx="377.74399"
       fy="408.771"
       fx="377.74399"><stop
         id="stop520"
         offset="0"
         style="stop-opacity:1;stop-color:#231f20" /><stop
         id="stop522"
         offset="1"
         style="stop-opacity:1;stop-color:#d26112" /></radialGradient><clipPath
       id="clipPath534"
       clipPathUnits="userSpaceOnUse"><path
         style="clip-rule:evenodd"
         id="path532"
         d="m 4426.86,5905.73 c -452.82,-878.34 -938.67,-1747 -1457.56,-2605.98 445.47,886.16 933.76,1753.77 1457.56,2605.98 z" /></clipPath><radialGradient
       id="radialGradient540"
       gradientTransform="matrix(10,0,0,10,40,70)"
       gradientUnits="userSpaceOnUse"
       r="0"
       cy="419.396"
       cx="358.51999"
       fy="419.396"
       fx="358.51999"><stop
         id="stop536"
         offset="0"
         style="stop-opacity:1;stop-color:#231f20" /><stop
         id="stop538"
         offset="1"
         style="stop-opacity:1;stop-color:#d26112" /></radialGradient><clipPath
       id="clipPath550"
       clipPathUnits="userSpaceOnUse"><path
         style="clip-rule:evenodd"
         id="path548"
         d="M 3953.95,6117.48 C 3660.54,5173.85 3332.9,4234.02 2971.07,3297.99 c 284.81,950.04 615.03,1889.26 982.88,2819.49 z" /></clipPath><radialGradient
       id="radialGradient556"
       gradientTransform="matrix(10,0,0,10,40,70)"
       gradientUnits="userSpaceOnUse"
       r="0"
       cy="427.12"
       cx="338.319"
       fy="427.12"
       fx="338.319"><stop
         id="stop552"
         offset="0"
         style="stop-opacity:1;stop-color:#231f20" /><stop
         id="stop554"
         offset="1"
         style="stop-opacity:1;stop-color:#d26112" /></radialGradient><clipPath
       id="clipPath566"
       clipPathUnits="userSpaceOnUse"><path
         style="clip-rule:evenodd"
         id="path564"
         d="m 3451.46,6243.88 c -125.09,-980.24 -284.55,-1962.69 -478.35,-2947.33 115.51,985.07 277.62,1967.36 478.35,2947.33 z" /></clipPath><radialGradient
       id="radialGradient572"
       gradientTransform="matrix(10,0,0,10,40,70)"
       gradientUnits="userSpaceOnUse"
       r="0"
       cy="431.707"
       cx="315.315"
       fy="431.707"
       fx="315.315"><stop
         id="stop568"
         offset="0"
         style="stop-opacity:1;stop-color:#231f20" /><stop
         id="stop570"
         offset="1"
         style="stop-opacity:1;stop-color:#d26112" /></radialGradient><clipPath
       id="clipPath582"
       clipPathUnits="userSpaceOnUse"><path
         style="clip-rule:evenodd"
         id="path580"
         d="m 2934.66,6281.12 c 47.02,-987.07 60.58,-1982.28 40.72,-2985.62 -57.3,990.16 -68.24,1985.68 -40.72,2985.62 z" /></clipPath><radialGradient
       id="radialGradient588"
       gradientTransform="matrix(10,0,0,10,40,70)"
       gradientUnits="userSpaceOnUse"
       r="0"
       cy="433.01801"
       cx="291.03"
       fy="433.01801"
       fx="291.03"><stop
         id="stop584"
         offset="0"
         style="stop-opacity:1;stop-color:#231f20" /><stop
         id="stop586"
         offset="1"
         style="stop-opacity:1;stop-color:#d26112" /></radialGradient><clipPath
       id="clipPath598"
       clipPathUnits="userSpaceOnUse"><path
         style="clip-rule:evenodd"
         id="path596"
         d="m 2419.25,6228.04 c 217.7,-963.91 403.88,-1941.65 558.54,-2933.19 -228.37,965.16 -412.01,1943.67 -558.54,2933.19 z" /></clipPath><radialGradient
       id="radialGradient604"
       gradientTransform="matrix(10,0,0,10,40,70)"
       gradientUnits="userSpaceOnUse"
       r="0"
       cy="431.013"
       cx="263.05899"
       fy="431.013"
       fx="263.05899"><stop
         id="stop600"
         offset="0"
         style="stop-opacity:1;stop-color:#231f20" /><stop
         id="stop602"
         offset="1"
         style="stop-opacity:1;stop-color:#d26112" /></radialGradient></defs><g
     transform="matrix(1.3333333,0,0,-1.3333333,0,920)"
     id="g10"><g
       transform="scale(0.1)"
       id="g12"><g
         id="g14"><g
           clip-path="url(#clipPath20)"
           id="g16"><path
             id="path30"
             style="fill:url(#radialGradient28);fill-opacity:1;fill-rule:nonzero;stroke:none"
             d="M 38.3516,6892.36 H 6161.65 V 11.9766 H 38.3516 V 6892.36" /></g></g><g
         id="g32"><g
           clip-path="url(#clipPath38)"
           id="g34"><path
             id="path46"
             style="fill:url(#radialGradient44);fill-opacity:1;fill-rule:nonzero;stroke:none"
             d="m 1920.88,6086.28 c 381.76,-911.46 734.9,-1842.01 1059.4,-2791.66 -392.51,910.87 -743.25,1842.62 -1059.4,2791.66" /></g></g><g
         id="g48"><g
           clip-path="url(#clipPath54)"
           id="g50"><path
             id="path62"
             style="fill:url(#radialGradient60);fill-opacity:1;fill-rule:nonzero;stroke:none"
             d="M 1454.7,5860.13 C 1988.94,5028.8 2498.3,4173.71 2982.77,3294.84 2438.05,4123.71 1930.84,4980.4 1454.7,5860.13" /></g></g><g
         id="g64"><g
           clip-path="url(#clipPath70)"
           id="g66"><path
             id="path78"
             style="fill:url(#radialGradient76);fill-opacity:1;fill-rule:nonzero;stroke:none"
             d="M 1034.86,5556.45 C 1705.35,4830.52 2355.45,4076.88 2985.18,3295.49 2304.82,4017.18 1656.54,4772.77 1034.86,5556.45" /></g></g><g
         id="g80"><g
           clip-path="url(#clipPath86)"
           id="g82"><path
             id="path94"
             style="fill:url(#radialGradient92);fill-opacity:1;fill-rule:nonzero;stroke:none"
             d="M 674.152,5184.49 C 1460.5,4586.02 2231.59,3956.71 2987.44,3296.54 2192.09,3889.13 1422.46,4520.67 674.152,5184.49" /></g></g><g
         id="g96"><g
           clip-path="url(#clipPath102)"
           id="g98"><path
             id="path110"
             style="fill:url(#radialGradient108);fill-opacity:1;fill-rule:nonzero;stroke:none"
             d="M 383.504,4755.55 C 1261.82,4302.71 2130.49,3816.86 2989.48,3297.98 2103.32,3743.45 1235.71,4231.76 383.504,4755.55" /></g></g><g
         id="g112"><g
           clip-path="url(#clipPath118)"
           id="g114"><path
             id="path126"
             style="fill:url(#radialGradient124);fill-opacity:1;fill-rule:nonzero;stroke:none"
             d="M 171.758,4282.64 C 1115.37,3989.21 2055.2,3661.57 2991.25,3299.75 2041.19,3584.57 1101.98,3914.79 171.758,4282.64" /></g></g><g
         id="g128"><g
           clip-path="url(#clipPath134)"
           id="g130"><path
             id="path142"
             style="fill:url(#radialGradient140);fill-opacity:1;fill-rule:nonzero;stroke:none"
             d="M 45.3438,3780.15 C 1025.57,3655.04 2008.02,3495.59 2992.69,3301.79 2007.59,3417.31 1025.31,3579.42 45.3438,3780.15" /></g></g><g
         id="g144"><g
           clip-path="url(#clipPath150)"
           id="g146"><path
             id="path158"
             style="fill:url(#radialGradient156);fill-opacity:1;fill-rule:nonzero;stroke:none"
             d="M 8.10938,3263.34 C 995.172,3310.36 1990.39,3323.92 2993.74,3304.05 2003.56,3246.76 1008.04,3235.84 8.10938,3263.34" /></g></g><g
         id="g160"><g
           clip-path="url(#clipPath166)"
           id="g162"><path
             id="path174"
             style="fill:url(#radialGradient172);fill-opacity:1;fill-rule:nonzero;stroke:none"
             d="M 61.1875,2747.93 C 1025.09,2965.62 2002.83,3151.8 2994.38,3306.46 2029.2,3078.09 1050.7,2894.48 61.1875,2747.93" /></g></g><g
         id="g176"><g
           clip-path="url(#clipPath182)"
           id="g178"><path
             id="path190"
             style="fill:url(#radialGradient188);fill-opacity:1;fill-rule:nonzero;stroke:none"
             d="M 202.957,2249.55 C 1114.41,2631.33 2044.96,2984.46 2994.6,3308.95 2083.73,2916.45 1151.99,2565.7 202.957,2249.55" /></g></g><g
         id="g192"><g
           clip-path="url(#clipPath198)"
           id="g194"><path
             id="path206"
             style="fill:url(#radialGradient204);fill-opacity:1;fill-rule:nonzero;stroke:none"
             d="M 429.105,1783.38 C 1260.43,2317.62 2115.52,2826.98 2994.38,3311.43 2165.52,2766.73 1308.83,2259.52 429.105,1783.38" /></g></g><g
         id="g208"><g
           clip-path="url(#clipPath214)"
           id="g210"><path
             id="path222"
             style="fill:url(#radialGradient220);fill-opacity:1;fill-rule:nonzero;stroke:none"
             d="M 732.781,1363.54 C 1458.71,2034.03 2212.36,2684.13 2993.74,3313.85 2272.05,2633.5 1516.46,1985.21 732.781,1363.54" /></g></g><g
         id="g224"><g
           clip-path="url(#clipPath230)"
           id="g226"><path
             id="path238"
             style="fill:url(#radialGradient236);fill-opacity:1;fill-rule:nonzero;stroke:none"
             d="M 1104.74,1002.83 C 1703.2,1789.17 2332.53,2560.27 2992.69,3316.12 2400.1,2520.77 1768.56,1751.14 1104.74,1002.83" /></g></g><g
         id="g240"><g
           clip-path="url(#clipPath246)"
           id="g242"><path
             id="path254"
             style="fill:url(#radialGradient252);fill-opacity:1;fill-rule:nonzero;stroke:none"
             d="M 1533.69,712.184 C 1986.52,1590.5 2472.37,2459.17 2991.25,3318.15 2545.78,2432 2057.48,1564.39 1533.69,712.184" /></g></g><g
         id="g256"><g
           clip-path="url(#clipPath262)"
           id="g258"><path
             id="path270"
             style="fill:url(#radialGradient268);fill-opacity:1;fill-rule:nonzero;stroke:none"
             d="M 2006.59,500.434 C 2300.01,1444.05 2627.65,2383.88 2989.49,3319.92 2704.66,2369.87 2374.45,1430.66 2006.59,500.434" /></g></g><g
         id="g272"><g
           clip-path="url(#clipPath278)"
           id="g274"><path
             id="path286"
             style="fill:url(#radialGradient284);fill-opacity:1;fill-rule:nonzero;stroke:none"
             d="m 2509.09,374.02 c 125.1,980.23 284.55,1962.68 478.36,2947.34 C 2871.92,2336.27 2709.81,1353.99 2509.09,374.02" /></g></g><g
         id="g288"><g
           clip-path="url(#clipPath294)"
           id="g290"><path
             id="path302"
             style="fill:url(#radialGradient300);fill-opacity:1;fill-rule:nonzero;stroke:none"
             d="m 3025.89,336.789 c -47.02,987.071 -60.58,1982.271 -40.71,2985.621 57.29,-990.17 68.22,-1985.69 40.71,-2985.621" /></g></g><g
         id="g304"><g
           clip-path="url(#clipPath310)"
           id="g306"><path
             id="path318"
             style="fill:url(#radialGradient316);fill-opacity:1;fill-rule:nonzero;stroke:none"
             d="M 3541.3,389.867 C 3323.61,1353.77 3137.43,2331.5 2982.77,3323.05 3211.14,2357.88 3394.75,1379.38 3541.3,389.867" /></g></g><g
         id="g320"><g
           clip-path="url(#clipPath326)"
           id="g322"><path
             id="path334"
             style="fill:url(#radialGradient332);fill-opacity:1;fill-rule:nonzero;stroke:none"
             d="M 4039.68,531.633 C 3657.9,1443.09 3304.77,2373.64 2980.29,3323.27 3372.77,2412.41 3723.52,1480.67 4039.68,531.633" /></g></g><g
         id="g336"><g
           clip-path="url(#clipPath342)"
           id="g338"><path
             id="path350"
             style="fill:url(#radialGradient348);fill-opacity:1;fill-rule:nonzero;stroke:none"
             d="M 4505.86,757.785 C 3971.61,1589.11 3462.25,2444.2 2977.8,3323.05 3522.5,2494.19 4029.71,1637.52 4505.86,757.785" /></g></g><g
         id="g352"><g
           clip-path="url(#clipPath358)"
           id="g354"><path
             id="path366"
             style="fill:url(#radialGradient364);fill-opacity:1;fill-rule:nonzero;stroke:none"
             d="M 4925.69,1061.46 C 4255.2,1787.37 3605.1,2541.03 2975.39,3322.42 3655.74,2600.73 4304.02,1845.14 4925.69,1061.46" /></g></g><g
         id="g368"><g
           clip-path="url(#clipPath374)"
           id="g370"><path
             id="path382"
             style="fill:url(#radialGradient380);fill-opacity:1;fill-rule:nonzero;stroke:none"
             d="M 5286.4,1433.42 C 4500.05,2031.88 3728.95,2661.21 2973.12,3321.36 3768.46,2728.78 4538.09,2097.24 5286.4,1433.42" /></g></g><g
         id="g384"><g
           clip-path="url(#clipPath390)"
           id="g386"><path
             id="path398"
             style="fill:url(#radialGradient396);fill-opacity:1;fill-rule:nonzero;stroke:none"
             d="M 5577.05,1862.37 C 4698.72,2315.18 3830.06,2801.04 2971.08,3319.93 3857.23,2874.46 4724.84,2386.16 5577.05,1862.37" /></g></g><g
         id="g400"><g
           clip-path="url(#clipPath406)"
           id="g402"><path
             id="path414"
             style="fill:url(#radialGradient412);fill-opacity:1;fill-rule:nonzero;stroke:none"
             d="m 5788.8,2335.27 c -943.63,293.42 -1883.46,621.06 -2819.49,982.89 950.04,-284.82 1889.26,-615.04 2819.49,-982.89" /></g></g><g
         id="g416"><g
           clip-path="url(#clipPath422)"
           id="g418"><path
             id="path430"
             style="fill:url(#radialGradient428);fill-opacity:1;fill-rule:nonzero;stroke:none"
             d="m 5915.21,2837.76 c -980.23,125.1 -1962.68,284.56 -2947.33,478.36 985.07,-115.52 1967.35,-277.63 2947.33,-478.36" /></g></g><g
         id="g432"><g
           clip-path="url(#clipPath438)"
           id="g434"><path
             id="path446"
             style="fill:url(#radialGradient444);fill-opacity:1;fill-rule:nonzero;stroke:none"
             d="m 5952.44,3354.57 c -987.06,-47.02 -1982.28,-60.58 -2985.61,-40.71 990.15,57.29 1985.67,68.22 2985.61,40.71" /></g></g><g
         id="g448"><g
           clip-path="url(#clipPath454)"
           id="g450"><path
             id="path462"
             style="fill:url(#radialGradient460);fill-opacity:1;fill-rule:nonzero;stroke:none"
             d="m 5899.37,3869.98 c -963.91,-217.69 -1941.65,-403.87 -2933.2,-558.53 965.17,228.36 1943.67,411.98 2933.2,558.53" /></g></g><g
         id="g464"><g
           clip-path="url(#clipPath470)"
           id="g466"><path
             id="path478"
             style="fill:url(#radialGradient476);fill-opacity:1;fill-rule:nonzero;stroke:none"
             d="m 5757.59,4368.35 c -911.45,-381.77 -1842,-734.9 -2791.63,-1059.39 910.84,392.49 1842.59,743.24 2791.63,1059.39" /></g></g><g
         id="g480"><g
           clip-path="url(#clipPath486)"
           id="g482"><path
             id="path494"
             style="fill:url(#radialGradient492);fill-opacity:1;fill-rule:nonzero;stroke:none"
             d="M 5531.45,4834.53 C 4700.13,4300.28 3845.03,3790.93 2966.17,3306.48 c 828.86,544.69 1685.54,1051.91 2565.28,1528.05" /></g></g><g
         id="g496"><g
           clip-path="url(#clipPath502)"
           id="g498"><path
             id="path510"
             style="fill:url(#radialGradient508);fill-opacity:1;fill-rule:nonzero;stroke:none"
             d="M 5227.77,5254.37 C 4501.85,4583.88 3748.2,3933.77 2966.82,3304.06 3688.5,3984.42 4444.09,4632.7 5227.77,5254.37" /></g></g><g
         id="g512"><g
           clip-path="url(#clipPath518)"
           id="g514"><path
             id="path526"
             style="fill:url(#radialGradient524);fill-opacity:1;fill-rule:nonzero;stroke:none"
             d="M 4855.8,5615.08 C 4257.35,4828.72 3628.03,4057.63 2967.87,3301.79 3560.45,4097.14 4191.98,4866.77 4855.8,5615.08" /></g></g><g
         id="g528"><g
           clip-path="url(#clipPath534)"
           id="g530"><path
             id="path542"
             style="fill:url(#radialGradient540);fill-opacity:1;fill-rule:nonzero;stroke:none"
             d="m 4426.86,5905.73 c -452.82,-878.34 -938.67,-1747 -1457.56,-2605.98 445.47,886.16 933.76,1753.77 1457.56,2605.98" /></g></g><g
         id="g544"><g
           clip-path="url(#clipPath550)"
           id="g546"><path
             id="path558"
             style="fill:url(#radialGradient556);fill-opacity:1;fill-rule:nonzero;stroke:none"
             d="M 3953.95,6117.48 C 3660.54,5173.85 3332.9,4234.02 2971.07,3297.99 c 284.81,950.04 615.03,1889.26 982.88,2819.49" /></g></g><g
         id="g560"><g
           clip-path="url(#clipPath566)"
           id="g562"><path
             id="path574"
             style="fill:url(#radialGradient572);fill-opacity:1;fill-rule:nonzero;stroke:none"
             d="m 3451.46,6243.88 c -125.09,-980.24 -284.55,-1962.69 -478.35,-2947.33 115.51,985.07 277.62,1967.36 478.35,2947.33" /></g></g><g
         id="g576"><g
           clip-path="url(#clipPath582)"
           id="g578"><path
             id="path590"
             style="fill:url(#radialGradient588);fill-opacity:1;fill-rule:nonzero;stroke:none"
             d="m 2934.66,6281.12 c 47.02,-987.07 60.58,-1982.28 40.72,-2985.62 -57.3,990.16 -68.24,1985.68 -40.72,2985.62" /></g></g><g
         id="g592"><g
           clip-path="url(#clipPath598)"
           id="g594"><path
             id="path606"
             style="fill:url(#radialGradient604);fill-opacity:1;fill-rule:nonzero;stroke:none"
             d="m 2419.25,6228.04 c 217.7,-963.91 403.88,-1941.65 558.54,-2933.19 -228.37,965.16 -412.01,1943.67 -558.54,2933.19" /></g></g><path
         id="path608"
         style="fill:#231f20;fill-opacity:1;fill-rule:evenodd;stroke:none"
         d="m 5262.16,4882.24 c 341.22,0 617.95,-276.72 617.95,-617.94 0,-341.23 -276.73,-617.95 -617.95,-617.95 -341.22,0 -617.95,276.72 -617.95,617.95 0,341.22 276.73,617.94 617.95,617.94" /><path
         id="path610"
         style="fill:none;stroke:#231f20;stroke-width:120.70200348;stroke-linecap:butt;stroke-linejoin:miter;stroke-miterlimit:22.92560005;stroke-dasharray:none;stroke-opacity:1"
         d="m 5262.16,4882.24 c 341.22,0 617.95,-276.72 617.95,-617.94 0,-341.23 -276.73,-617.95 -617.95,-617.95 -341.22,0 -617.95,276.72 -617.95,617.95 0,341.22 276.73,617.94 617.95,617.94 z" /><path
         id="path612"
         style="fill:#231f20;fill-opacity:1;fill-rule:evenodd;stroke:none"
         d="m 5262.16,4736.07 c 260.51,0 471.77,-211.27 471.77,-471.77 0,-260.51 -211.26,-471.78 -471.77,-471.78 -260.5,0 -471.77,211.27 -471.77,471.78 0,260.5 211.27,471.77 471.77,471.77" /><path
         id="path614"
         style="fill:none;stroke:#f47216;stroke-width:90.52680206;stroke-linecap:butt;stroke-linejoin:miter;stroke-miterlimit:22.92560005;stroke-dasharray:none;stroke-opacity:1"
         d="m 5262.16,4736.07 c 260.51,0 471.77,-211.27 471.77,-471.77 0,-260.51 -211.26,-471.78 -471.77,-471.78 -260.5,0 -471.77,211.27 -471.77,471.78 0,260.5 211.27,471.77 471.77,471.77 z" /><path
         id="path616"
         style="fill:#231f20;fill-opacity:1;fill-rule:evenodd;stroke:none"
         d="m 5262.16,4623.1 c 198.13,0 358.81,-160.67 358.81,-358.8 0,-198.14 -160.68,-358.81 -358.81,-358.81 -198.13,0 -358.8,160.67 -358.8,358.81 0,198.13 160.67,358.8 358.8,358.8" /><path
         id="path618"
         style="fill:none;stroke:#fff200;stroke-width:30.1760006;stroke-linecap:butt;stroke-linejoin:miter;stroke-miterlimit:22.92560005;stroke-dasharray:none;stroke-opacity:1"
         d="m 5262.16,4623.1 c 198.13,0 358.81,-160.67 358.81,-358.8 0,-198.14 -160.68,-358.81 -358.81,-358.81 -198.13,0 -358.8,160.67 -358.8,358.81 0,198.13 160.67,358.8 358.8,358.8 z" /><path
         id="path620"
         style="fill:#231f20;fill-opacity:1;fill-rule:evenodd;stroke:none"
         d="m 4993.76,4158.18 c 227.48,0 411.96,-184.48 411.96,-411.96 0,-227.49 -184.48,-411.97 -411.96,-411.97 -227.48,0 -411.97,184.48 -411.97,411.97 0,227.48 184.49,411.96 411.97,411.96" /><path
         id="path622"
         style="fill:none;stroke:#231f20;stroke-width:80.46779633;stroke-linecap:butt;stroke-linejoin:miter;stroke-miterlimit:22.92560005;stroke-dasharray:none;stroke-opacity:1"
         d="m 4993.76,4158.18 c 227.48,0 411.96,-184.48 411.96,-411.96 0,-227.49 -184.48,-411.97 -411.96,-411.97 -227.48,0 -411.97,184.48 -411.97,411.97 0,227.48 184.49,411.96 411.97,411.96 z" /><path
         id="path624"
         style="fill:#231f20;fill-opacity:1;fill-rule:evenodd;stroke:none"
         d="m 4993.76,4060.73 c 173.67,0 314.51,-140.84 314.51,-314.51 0,-173.67 -140.84,-314.51 -314.51,-314.51 -173.67,0 -314.51,140.84 -314.51,314.51 0,173.67 140.84,314.51 314.51,314.51" /><path
         id="path626"
         style="fill:none;stroke:#f47216;stroke-width:60.3512001;stroke-linecap:butt;stroke-linejoin:miter;stroke-miterlimit:22.92560005;stroke-dasharray:none;stroke-opacity:1"
         d="m 4993.76,4060.73 c 173.67,0 314.51,-140.84 314.51,-314.51 0,-173.67 -140.84,-314.51 -314.51,-314.51 -173.67,0 -314.51,140.84 -314.51,314.51 0,173.67 140.84,314.51 314.51,314.51 z" /><path
         id="path628"
         style="fill:#231f20;fill-opacity:1;fill-rule:evenodd;stroke:none"
         d="m 4993.76,3985.43 c 132.09,0 239.2,-107.12 239.2,-239.21 0,-132.09 -107.11,-239.21 -239.2,-239.21 -132.09,0 -239.21,107.12 -239.21,239.21 0,132.09 107.12,239.21 239.21,239.21" /><path
         id="path630"
         style="fill:none;stroke:#fff200;stroke-width:20.11739922;stroke-linecap:butt;stroke-linejoin:miter;stroke-miterlimit:22.92560005;stroke-dasharray:none;stroke-opacity:1"
         d="m 4993.76,3985.43 c 132.09,0 239.2,-107.12 239.2,-239.21 0,-132.09 -107.11,-239.21 -239.2,-239.21 -132.09,0 -239.21,107.12 -239.21,239.21 0,132.09 107.12,239.21 239.21,239.21 z" /><path
         id="path632"
         style="fill:#231f20;fill-opacity:1;fill-rule:evenodd;stroke:none"
         d="m 4650.45,4395.38 c 155.11,0 280.89,-125.78 280.89,-280.89 0,-155.1 -125.78,-280.88 -280.89,-280.88 -155.1,0 -280.88,125.78 -280.88,280.88 0,155.11 125.78,280.89 280.88,280.89" /><path
         id="path634"
         style="fill:none;stroke:#231f20;stroke-width:54.86439896;stroke-linecap:butt;stroke-linejoin:miter;stroke-miterlimit:22.92560005;stroke-dasharray:none;stroke-opacity:1"
         d="m 4650.45,4395.38 c 155.11,0 280.89,-125.78 280.89,-280.89 0,-155.1 -125.78,-280.88 -280.89,-280.88 -155.1,0 -280.88,125.78 -280.88,280.88 0,155.11 125.78,280.89 280.88,280.89 z" /><path
         id="path636"
         style="fill:#231f20;fill-opacity:1;fill-rule:evenodd;stroke:none"
         d="m 4650.45,4328.93 c 118.42,0 214.44,-96.03 214.44,-214.44 0,-118.42 -96.02,-214.44 -214.44,-214.44 -118.41,0 -214.43,96.02 -214.43,214.44 0,118.41 96.02,214.44 214.43,214.44" /><path
         id="path638"
         style="fill:none;stroke:#f47216;stroke-width:41.14849854;stroke-linecap:butt;stroke-linejoin:miter;stroke-miterlimit:22.92560005;stroke-dasharray:none;stroke-opacity:1"
         d="m 4650.45,4328.93 c 118.42,0 214.44,-96.03 214.44,-214.44 0,-118.42 -96.02,-214.44 -214.44,-214.44 -118.41,0 -214.43,96.02 -214.43,214.44 0,118.41 96.02,214.44 214.43,214.44 z" /><path
         id="path640"
         style="fill:#231f20;fill-opacity:1;fill-rule:evenodd;stroke:none"
         d="m 4650.45,4277.59 c 90.07,0 163.1,-73.04 163.1,-163.1 0,-90.06 -73.03,-163.1 -163.1,-163.1 -90.06,0 -163.09,73.04 -163.09,163.1 0,90.06 73.03,163.1 163.09,163.1" /><path
         id="path642"
         style="fill:none;stroke:#fff200;stroke-width:13.71640015;stroke-linecap:butt;stroke-linejoin:miter;stroke-miterlimit:22.92560005;stroke-dasharray:none;stroke-opacity:1"
         d="m 4650.45,4277.59 c 90.07,0 163.1,-73.04 163.1,-163.1 0,-90.06 -73.03,-163.1 -163.1,-163.1 -90.06,0 -163.09,73.04 -163.09,163.1 0,90.06 73.03,163.1 163.09,163.1 z" /><path
         id="path644"
         style="fill:#e56a14;fill-opacity:1;fill-rule:evenodd;stroke:none"
         d="M 827.953,15.1641 1345.67,1150.3 l 3383.94,313.58 104.15,-124.52 1324.77,113.05 V 797.492 Z M 1617.95,785.988 1514.41,517.543 2680.23,690.113 2534.5,901.035 1617.95,785.988" /><path
         id="path646"
         style="fill:none;stroke:#ffffff;stroke-width:39.68500137;stroke-linecap:butt;stroke-linejoin:miter;stroke-miterlimit:22.92560005;stroke-dasharray:none;stroke-opacity:1"
         d="m 4348.43,1319.04 c 510.35,0 924.22,-154.55 924.22,-345.138 0,-190.589 -413.87,-345.148 -924.22,-345.148 -510.34,0 -924.22,154.559 -924.22,345.148 0,190.588 413.88,345.138 924.22,345.138 z" /><path
         id="path648"
         style="fill:none;stroke:#ffffff;stroke-width:19.84250069;stroke-linecap:butt;stroke-linejoin:miter;stroke-miterlimit:22.92560005;stroke-dasharray:none;stroke-opacity:1"
         d="m 4348.43,1241.71 c 396,0 717.14,-119.92 717.14,-267.808 0,-147.886 -321.14,-267.812 -717.14,-267.812 -396,0 -717.13,119.926 -717.13,267.812 0,147.888 321.13,267.808 717.13,267.808 z" /><path
         id="path650"
         style="fill:none;stroke:#ffffff;stroke-width:28.3465004;stroke-linecap:butt;stroke-linejoin:miter;stroke-miterlimit:22.92560005;stroke-dasharray:none;stroke-opacity:1"
         d="m 4455.81,1166.32 c 273.17,0 494.71,-82.73 494.71,-184.75 0,-102.015 -221.54,-184.746 -494.71,-184.746 -273.18,0 -494.71,82.731 -494.71,184.746 0,102.02 221.53,184.75 494.71,184.75 z" /><path
         id="path652"
         style="fill:#231f20;fill-opacity:1;fill-rule:evenodd;stroke:none"
         d="m 4517.17,1088.95 c 141.76,0 256.72,-42.93 256.72,-95.876 0,-52.941 -114.96,-95.875 -256.72,-95.875 -141.76,0 -256.72,42.934 -256.72,95.875 0,52.946 114.96,95.876 256.72,95.876" /><path
         id="path654"
         style="fill:none;stroke:#231f20;stroke-width:28.3465004;stroke-linecap:butt;stroke-linejoin:miter;stroke-miterlimit:22.92560005;stroke-dasharray:none;stroke-opacity:1"
         d="m 4517.17,1088.95 c 141.76,0 256.72,-42.93 256.72,-95.876 0,-52.941 -114.96,-95.875 -256.72,-95.875 -141.76,0 -256.72,42.934 -256.72,95.875 0,52.946 114.96,95.876 256.72,95.876 z" /><path
         id="path656"
         style="fill:#ffffff;fill-opacity:1;fill-rule:evenodd;stroke:none"
         d="m 4616.88,1046.77 c 29.64,0 53.68,-13.61 53.68,-30.38 0,-16.773 -24.04,-30.374 -53.68,-30.374 -29.65,0 -53.68,13.601 -53.68,30.374 0,16.77 24.03,30.38 53.68,30.38" /><path
         id="path658"
         style="fill:none;stroke:#231f20;stroke-width:28.3465004;stroke-linecap:butt;stroke-linejoin:miter;stroke-miterlimit:22.92560005;stroke-dasharray:none;stroke-opacity:1"
         d="m 4616.88,1046.77 c 29.64,0 53.68,-13.61 53.68,-30.38 0,-16.773 -24.04,-30.374 -53.68,-30.374 -29.65,0 -53.68,13.601 -53.68,30.374 0,16.77 24.03,30.38 53.68,30.38 z" /><path
         id="path660"
         style="fill:#ffffff;fill-opacity:1;fill-rule:evenodd;stroke:none"
         d="m 2802.4,1062.1 c 61.72,0 111.76,-29.19 111.76,-65.19 0,-35.996 -50.04,-65.195 -111.76,-65.195 -61.71,0 -111.76,29.199 -111.76,65.195 0,36 50.05,65.19 111.76,65.19" /><path
         id="path662"
         style="fill:#ffffff;fill-opacity:1;fill-rule:evenodd;stroke:none"
         d="m 2959.63,901.035 c 61.72,0 111.76,-29.195 111.76,-65.191 0,-36 -50.04,-65.196 -111.76,-65.196 -61.71,0 -111.76,29.196 -111.76,65.196 0,35.996 50.05,65.191 111.76,65.191" /><path
         id="path664"
         style="fill:#ffffff;fill-opacity:1;fill-rule:evenodd;stroke:none"
         d="m 3124.54,697.785 c 61.71,0 111.76,-29.195 111.76,-65.195 0,-35.996 -50.05,-65.195 -111.76,-65.195 -61.72,0 -111.77,29.199 -111.77,65.195 0,36 50.05,65.195 111.77,65.195" /><path
         id="path666"
         style="fill:#231f20;fill-opacity:1;fill-rule:evenodd;stroke:none"
         d="m 2802.09,3953.65 c -49.73,270.11 79.97,372.76 260.77,502.38 140.99,77.32 582.43,-21.45 605.92,-356.65 73.52,-99.69 321.37,-103.59 260.79,-216.68 -114.73,-94.35 -233.3,-70.61 -341.32,-118.88 6.07,-61.03 32.28,-123.99 35.47,-183.11 -11.19,-18.87 -56.88,4.49 -85.33,-7.67 -21.69,-18.5 -30.45,-56.85 -30.7,-78.59 -0.09,-8.38 -0.32,-13.99 -7.64,-14.43 -11.99,-2.55 3.34,-19.02 -15.35,-17.24 -24.76,-6.35 0.32,-95.27 -26.84,-101.14 -33.4,-2.24 -68.72,-0.63 -102.59,4.81 -41.86,7.33 -106.72,52.07 -148.58,70.44 -8.63,-50.49 -6.08,-102.58 21.07,-158.19 143.7,-106.17 282.74,-300.25 373.91,-510.04 92.68,-267.71 208.35,-334.27 289.54,-475.54 237.2,-229.45 422.69,-215.6 970.24,-659.61 201.97,-97.82 631.91,-368.06 605.92,-414.17 -16.69,-32.52 -253.69,177.3 -302.95,160.1 -8.91,-17.12 289.19,-302.5 233.92,-371.03 -30.19,-25.597 -232.85,350.37 -267.48,310.64 -31,-4.96 204.53,-348.804 183.12,-360.491 -64.56,-52.301 -201.98,360.991 -259.82,326.921 -42.19,-13.29 106.42,-332.816 60.4,-333.632 -43.79,-12.274 -73.18,200.082 -111.22,284.762 -22.21,56.12 -54.81,85.22 -102.58,74.78 -47.41,-50 34.52,-230.13 -26.85,-243.53 -25.56,-6.5 -27.16,166.52 -60.39,230.09 -38.68,66.78 -15.98,153.71 -67.12,232.01 -72.47,125.28 -677.52,93.47 -1033.52,395 -124,145.02 -174.16,357.25 -389.24,587.71 -83.03,-357.54 -103.48,-726.81 -23.01,-1115.01 174.76,-129.32 361.16,-46.24 352.82,-77.66 1.91,-156.14 -297.22,-1.25 -314.47,-22.04 -43.16,-39.83 431.43,-363.827 391.16,-390.226 -29.08,-51.289 -339.08,243.986 -375.83,223.416 -41.55,-13.89 289.87,-411.787 237.77,-433.365 -40.26,-32.148 -289.53,384.975 -312.54,355.715 -21.9,-22.38 106.26,-424.922 59.44,-428.582 -46.66,-17.125 -124,397.742 -174.5,392.132 -34.03,5.75 -18.21,-374.413 -56.08,-348.511 -28.92,-6.383 -6.07,221.477 -14.86,323.578 -3.84,69.343 -85.33,122.363 -103.54,219.553 l -951.07,-0.02 c 63.56,178.52 108.6,370.92 131.28,580.09 -72.65,88.3 -301.64,188.83 -338.35,342.19 -11.61,-20.84 -63.85,1267.1 348.96,1367.2 226.56,24.97 439.39,2.05 584.84,218.6 -17.71,91.54 -2.05,167.93 36.43,233.92" /><path
         id="path668"
         style="fill:none;stroke:#231f20;stroke-width:2.16000009;stroke-linecap:butt;stroke-linejoin:miter;stroke-miterlimit:22.92560005;stroke-dasharray:none;stroke-opacity:1"
         d="m 2802.09,3953.65 c -49.73,270.11 79.97,372.76 260.77,502.38 140.99,77.32 582.43,-21.45 605.92,-356.65 73.52,-99.69 321.37,-103.59 260.79,-216.68 -114.73,-94.35 -233.3,-70.61 -341.32,-118.88 6.07,-61.03 32.28,-123.99 35.47,-183.11 -11.19,-18.87 -56.88,4.49 -85.33,-7.67 -21.69,-18.5 -30.45,-56.85 -30.7,-78.59 -0.09,-8.38 -0.32,-13.99 -7.64,-14.43 -11.99,-2.55 3.34,-19.02 -15.35,-17.24 -24.76,-6.35 0.32,-95.27 -26.84,-101.14 -33.4,-2.24 -68.72,-0.63 -102.59,4.81 -41.86,7.33 -106.72,52.07 -148.58,70.44 -8.63,-50.49 -6.08,-102.58 21.07,-158.19 143.7,-106.17 282.74,-300.25 373.91,-510.04 92.68,-267.71 208.35,-334.27 289.54,-475.54 237.2,-229.45 422.69,-215.6 970.24,-659.61 201.97,-97.82 631.91,-368.06 605.92,-414.17 -16.69,-32.52 -253.69,177.3 -302.95,160.1 -8.91,-17.12 289.19,-302.5 233.92,-371.03 -30.19,-25.597 -232.85,350.37 -267.48,310.64 -31,-4.96 204.53,-348.804 183.12,-360.491 -64.56,-52.301 -201.98,360.991 -259.82,326.921 -42.19,-13.29 106.42,-332.816 60.4,-333.632 -43.79,-12.274 -73.18,200.082 -111.22,284.762 -22.21,56.12 -54.81,85.22 -102.58,74.78 -47.41,-50 34.52,-230.13 -26.85,-243.53 -25.56,-6.5 -27.16,166.52 -60.39,230.09 -38.68,66.78 -15.98,153.71 -67.12,232.01 -72.47,125.28 -677.52,93.47 -1033.52,395 -124,145.02 -174.16,357.25 -389.24,587.71 -83.03,-357.54 -103.48,-726.81 -23.01,-1115.01 174.76,-129.32 361.16,-46.24 352.82,-77.66 1.91,-156.14 -297.22,-1.25 -314.47,-22.04 -43.16,-39.83 431.43,-363.827 391.16,-390.226 -29.08,-51.289 -339.08,243.986 -375.83,223.416 -41.55,-13.89 289.87,-411.787 237.77,-433.365 -40.26,-32.148 -289.53,384.975 -312.54,355.715 -21.9,-22.38 106.26,-424.922 59.44,-428.582 -46.66,-17.125 -124,397.742 -174.5,392.132 -34.03,5.75 -18.21,-374.413 -56.08,-348.511 -28.92,-6.383 -6.07,221.477 -14.86,323.578 -3.84,69.343 -85.33,122.363 -103.54,219.553 l -951.07,-0.02 c 63.56,178.52 108.6,370.92 131.28,580.09 -72.65,88.3 -301.64,188.83 -338.35,342.19 -11.61,-20.84 -63.85,1267.1 348.96,1367.2 226.56,24.97 439.39,2.05 584.84,218.6 -17.71,91.54 -2.05,167.93 36.43,233.92 z" /><path
         id="path670"
         style="fill:#f47216;fill-opacity:1;fill-rule:evenodd;stroke:none"
         d="m 3085.87,3437.44 c 117,0 211.89,-95.65 211.89,-213.6 0,-117.95 -94.89,-213.6 -211.89,-213.6 -117,0 -211.89,95.65 -211.89,213.6 0,117.95 94.89,213.6 211.89,213.6" /><path
         id="path672"
         style="fill:#231f20;fill-opacity:1;fill-rule:evenodd;stroke:none"
         d="m 3081.55,3336.64 c 74.39,0 134.71,-63.41 134.71,-141.6 0,-78.19 -60.32,-141.6 -134.71,-141.6 -43.82,0 -82.76,22.03 -107.36,56.11 22.25,-20.76 52.1,-33.48 84.92,-33.48 68.76,0 124.52,55.76 124.52,124.52 0,68.77 -55.76,124.52 -124.52,124.52 -17.36,0 -33.89,-3.54 -48.9,-9.96 20.69,13.62 45.14,21.49 71.34,21.49" /><path
         id="path674"
         style="fill:none;stroke:#231f20;stroke-width:2.16000009;stroke-linecap:butt;stroke-linejoin:miter;stroke-miterlimit:22.92560005;stroke-dasharray:none;stroke-opacity:1"
         d="m 3081.55,3336.64 c 74.39,0 134.71,-63.41 134.71,-141.6 0,-78.19 -60.32,-141.6 -134.71,-141.6 -43.82,0 -82.76,22.03 -107.36,56.11 22.25,-20.76 52.1,-33.48 84.92,-33.48 68.76,0 124.52,55.76 124.52,124.52 0,68.77 -55.76,124.52 -124.52,124.52 -17.36,0 -33.89,-3.54 -48.9,-9.96 20.69,13.62 45.14,21.49 71.34,21.49 z" /><path
         id="path676"
         style="fill:#f47216;fill-opacity:1;fill-rule:evenodd;stroke:none"
         d="m 2572.93,3554.55 c 15.18,44.8 40.74,77.11 81.5,91.2 33.87,-4.16 152.12,-144.63 236.81,-196.79 3.83,-16.96 -17.26,-30.08 -25.88,-45.12 l 115.07,-106.72 c 21.45,17.5 48.84,27.99 78.68,27.99 68.76,0 124.52,-55.75 124.52,-124.52 0,-68.76 -55.76,-124.52 -124.52,-124.52 -68.77,0 -124.52,55.76 -124.52,124.52 0,25.96 7.94,50.07 21.54,70.03 l -106.12,101.54 c -13.74,-9.92 -30.36,-38.56 -41.22,-29.76 -69.04,86.08 -231.07,178.87 -235.86,212.15 z m 198.02,-90.94 14.4,15.67 c 9.24,10.05 25.03,10.72 35.09,1.48 l 22.8,-20.97 c 10.06,-9.24 10.72,-25.03 1.47,-35.09 l -14.4,-15.66 c -9.24,-10.06 -25.03,-10.72 -35.09,-1.48 l -22.8,20.96 c -10.06,9.25 -10.72,25.04 -1.47,35.09" /><path
         id="path678"
         style="fill:#231f20;fill-opacity:1;fill-rule:evenodd;stroke:none"
         d="m 3172.16,3345.27 35.47,21.13 c 44.38,-53.43 59.35,-116.15 51.3,-190.08 -11.87,75.83 -39.11,134.08 -86.77,168.95" /><path
         id="path680"
         style="fill:#231f20;fill-opacity:1;fill-rule:evenodd;stroke:none"
         d="M 41.4727,6353.58 H 3399.61 v -149.8 H 41.4727 v 149.8" /><path
         id="path682"
         style="fill:none;stroke:#231f20;stroke-width:2.16000009;stroke-linecap:butt;stroke-linejoin:miter;stroke-miterlimit:22.92560005;stroke-dasharray:none;stroke-opacity:1"
         d="M 41.4727,6353.58 H 3399.61 v -149.8 H 41.4727 Z" /><path
         id="path684"
         style="fill:#231f20;fill-opacity:1;fill-rule:evenodd;stroke:none"
         d="M 41.4727,6053.97 H 1264.88 v -16.26 h 1185.96 v -33.67 H 1264.88 v -16.26 H 41.4727 v 66.19" /><path
         id="path686"
         style="fill:none;stroke:#231f20;stroke-width:2.16000009;stroke-linecap:butt;stroke-linejoin:miter;stroke-miterlimit:22.92560005;stroke-dasharray:none;stroke-opacity:1"
         d="M 41.4727,6053.97 H 1264.88 v -16.26 h 1185.96 v -33.67 H 1264.88 v -16.26 H 41.4727 Z" /><path
         id="path688"
         style="fill:#231f20;fill-opacity:1;fill-rule:evenodd;stroke:none"
         d="m 4410.8,6009.49 h 1669.08 v -299.61 h -0.87 V 1750.4 c 0,-61.89 -11.48,-112.54 -25.53,-112.54 h -21.89 c -14.04,0 -25.53,50.65 -25.53,112.54 v 3959.48 h -152.24 v -868.95 c 0,-15.91 -8.11,-28.92 -18.03,-28.92 h -15.45 c -9.91,0 -18.03,13.01 -18.03,28.92 v 868.95 h -216.58 v -451.31 c 0,-9.7 -11.49,-17.62 -25.53,-17.62 h -21.88 c -14.05,0 -25.54,7.92 -25.54,17.62 v 451.31 h -278.81 v -547.83 c 0,-9.69 -3.38,-17.61 -7.51,-17.61 h -6.43 c -4.13,0 -7.51,7.92 -7.51,17.61 v 547.83 H 4410.8 v 299.61" /><path
         id="path690"
         style="fill:#231f20;fill-opacity:1;fill-rule:evenodd;stroke:none"
         d="m 1845.36,4814.85 v 862.31 H 1726.4 c 0.65,-4.81 1,-9.92 1,-15.22 V 3833.39 c 0,-27.94 -9.78,-50.84 -21.73,-50.84 h -18.62 c -11.95,0 -21.73,22.9 -21.73,50.84 v 1828.55 c 0,5.3 0.36,10.41 1.01,15.22 H 1555.82 V 4522.51 c 0,-17.72 -16.77,-32.21 -37.27,-32.21 h -31.95 c -20.51,0 -37.28,14.49 -37.28,32.21 V 5677.16 H 1295.7 v -28.91 H 987.477 v -593.82 c 0,-9.48 -6.637,-17.23 -14.758,-17.23 H 960.07 c -8.113,0 -14.754,7.75 -14.754,17.23 v 593.82 H 376.238 V 3301.76 c 0,-36.35 -6.636,-66.1 -14.754,-66.1 h -12.648 c -8.117,0 -14.754,29.75 -14.754,66.1 v 2346.49 h -159.07 v -3510.3 c 0,-53.99 -15.703,-98.16 -34.903,-98.16 h -29.914 c -19.195,0 -34.8981,44.17 -34.8981,98.16 v 3529.71 c 0,53.99 15.7031,98.16 34.8981,98.16 h 3.278 v 0.15 H 1295.7 v -28.9 h 1146 v -59.91 h -570.3 v -862.31 c 0,-13.35 -4.11,-24.29 -9.12,-24.29 h -7.81 c -5.01,0 -9.11,10.94 -9.11,24.29" /><path
         id="path692"
         style="fill:none;stroke:#231f20;stroke-width:2.16000009;stroke-linecap:butt;stroke-linejoin:miter;stroke-miterlimit:22.92560005;stroke-dasharray:none;stroke-opacity:1"
         d="m 1845.36,4814.85 v 862.31 H 1726.4 c 0.65,-4.81 1,-9.92 1,-15.22 V 3833.39 c 0,-27.94 -9.78,-50.84 -21.73,-50.84 h -18.62 c -11.95,0 -21.73,22.9 -21.73,50.84 v 1828.55 c 0,5.3 0.36,10.41 1.01,15.22 H 1555.82 V 4522.51 c 0,-17.72 -16.77,-32.21 -37.27,-32.21 h -31.95 c -20.51,0 -37.28,14.49 -37.28,32.21 V 5677.16 H 1295.7 v -28.91 H 987.477 v -593.82 c 0,-9.48 -6.637,-17.23 -14.758,-17.23 H 960.07 c -8.113,0 -14.754,7.75 -14.754,17.23 v 593.82 H 376.238 V 3301.76 c 0,-36.35 -6.636,-66.1 -14.754,-66.1 h -12.648 c -8.117,0 -14.754,29.75 -14.754,66.1 v 2346.49 h -159.07 v -3510.3 c 0,-53.99 -15.703,-98.16 -34.903,-98.16 h -29.914 c -19.195,0 -34.8981,44.17 -34.8981,98.16 v 3529.71 c 0,53.99 15.7031,98.16 34.8981,98.16 h 3.278 v 0.15 H 1295.7 v -28.9 h 1146 v -59.91 h -570.3 v -862.31 c 0,-13.35 -4.11,-24.29 -9.12,-24.29 h -7.81 c -5.01,0 -9.11,10.94 -9.11,24.29 z" /><path
         id="path694"
         style="fill:none;stroke:#231f20;stroke-width:69.49490356;stroke-linecap:butt;stroke-linejoin:miter;stroke-miterlimit:22.92560005;stroke-dasharray:none;stroke-opacity:1"
         d="m 589.707,2352.42 c 196.461,0 355.785,-159.32 355.785,-355.78 0,-196.46 -159.324,-355.79 -355.785,-355.79 -196.461,0 -355.789,159.33 -355.789,355.79 0,196.46 159.328,355.78 355.789,355.78 z" /><path
         id="path696"
         style="fill:none;stroke:#f47216;stroke-width:52.12149811;stroke-linecap:butt;stroke-linejoin:miter;stroke-miterlimit:22.92560005;stroke-dasharray:none;stroke-opacity:1"
         d="m 589.707,2268.27 c 149.984,0 271.633,-121.65 271.633,-271.63 0,-149.99 -121.649,-271.64 -271.633,-271.64 -149.984,0 -271.633,121.65 -271.633,271.64 0,149.98 121.649,271.63 271.633,271.63 z" /><path
         id="path698"
         style="fill:none;stroke:#fff200;stroke-width:17.37409973;stroke-linecap:butt;stroke-linejoin:miter;stroke-miterlimit:22.92560005;stroke-dasharray:none;stroke-opacity:1"
         d="m 589.707,2203.22 c 114.074,0 206.586,-92.51 206.586,-206.58 0,-114.07 -92.512,-206.59 -206.586,-206.59 -114.066,0 -206.59,92.52 -206.59,206.59 0,114.07 92.524,206.58 206.59,206.58 z" /><path
         id="path700"
         style="fill:none;stroke:#231f20;stroke-width:112.72499847;stroke-linecap:butt;stroke-linejoin:miter;stroke-miterlimit:22.92560005;stroke-dasharray:none;stroke-opacity:1"
         d="m 725.242,1709.02 c 318.668,0 577.108,-258.44 577.108,-577.12 0,-318.67 -258.44,-577.107 -577.108,-577.107 -318.676,0 -577.113,258.437 -577.113,577.107 0,318.68 258.437,577.12 577.113,577.12 z" /><path
         id="path702"
         style="fill:none;stroke:#f47216;stroke-width:84.54450226;stroke-linecap:butt;stroke-linejoin:miter;stroke-miterlimit:22.92560005;stroke-dasharray:none;stroke-opacity:1"
         d="m 725.242,1572.5 c 243.285,0 440.598,-197.31 440.598,-440.6 0,-243.283 -197.313,-440.595 -440.598,-440.595 -243.285,0 -440.601,197.312 -440.601,440.595 0,243.29 197.316,440.6 440.601,440.6 z" /><path
         id="path704"
         style="fill:none;stroke:#fff200;stroke-width:28.18190002;stroke-linecap:butt;stroke-linejoin:miter;stroke-miterlimit:22.92560005;stroke-dasharray:none;stroke-opacity:1"
         d="m 725.242,1467 c 185.035,0 335.098,-150.06 335.098,-335.1 0,-185.025 -150.063,-335.095 -335.098,-335.095 -185.019,0 -335.101,150.07 -335.101,335.095 0,185.04 150.082,335.1 335.101,335.1 z" /><path
         id="path706"
         style="fill:none;stroke:#231f20;stroke-width:69.49490356;stroke-linecap:butt;stroke-linejoin:miter;stroke-miterlimit:22.92560005;stroke-dasharray:none;stroke-opacity:1"
         d="m 5222.24,6582.07 c 196.46,0 355.79,-159.33 355.79,-355.79 0,-196.46 -159.33,-355.79 -355.79,-355.79 -196.46,0 -355.79,159.33 -355.79,355.79 0,196.46 159.33,355.79 355.79,355.79 z" /><path
         id="path708"
         style="fill:none;stroke:#f47216;stroke-width:52.12149811;stroke-linecap:butt;stroke-linejoin:miter;stroke-miterlimit:22.92560005;stroke-dasharray:none;stroke-opacity:1"
         d="m 5222.24,6497.91 c 149.99,0 271.64,-121.65 271.64,-271.63 0,-149.99 -121.65,-271.64 -271.64,-271.64 -149.98,0 -271.63,121.65 -271.63,271.64 0,149.98 121.65,271.63 271.63,271.63 z" /><path
         id="path710"
         style="fill:none;stroke:#fff200;stroke-width:17.37409973;stroke-linecap:butt;stroke-linejoin:miter;stroke-miterlimit:22.92560005;stroke-dasharray:none;stroke-opacity:1"
         d="m 5222.24,6432.87 c 114.08,0 206.59,-92.52 206.59,-206.59 0,-114.07 -92.51,-206.59 -206.59,-206.59 -114.06,0 -206.59,92.52 -206.59,206.59 0,114.07 92.53,206.59 206.59,206.59 z" /><path
         id="path712"
         style="fill:none;stroke:#231f20;stroke-width:41.4530983;stroke-linecap:butt;stroke-linejoin:miter;stroke-miterlimit:22.92560005;stroke-dasharray:none;stroke-opacity:1"
         d="m 5715.35,6357.36 c 117.19,0 212.23,-95.04 212.23,-212.23 0,-117.18 -95.04,-212.22 -212.23,-212.22 -117.18,0 -212.22,95.04 -212.22,212.22 0,117.19 95.04,212.23 212.22,212.23 z" /><path
         id="path714"
         style="fill:none;stroke:#f47216;stroke-width:31.09000015;stroke-linecap:butt;stroke-linejoin:miter;stroke-miterlimit:22.92560005;stroke-dasharray:none;stroke-opacity:1"
         d="m 5715.35,6307.17 c 89.47,0 162.04,-72.57 162.04,-162.04 0,-89.46 -72.57,-162.02 -162.04,-162.02 -89.47,0 -162.03,72.56 -162.03,162.02 0,89.47 72.56,162.04 162.03,162.04 z" /><path
         id="path716"
         style="fill:none;stroke:#fff200;stroke-width:10.36349964;stroke-linecap:butt;stroke-linejoin:miter;stroke-miterlimit:22.92560005;stroke-dasharray:none;stroke-opacity:1"
         d="m 5715.35,6268.36 c 68.05,0 123.23,-55.18 123.23,-123.23 0,-68.03 -55.18,-123.22 -123.23,-123.22 -68.03,0 -123.22,55.19 -123.22,123.22 0,68.05 55.19,123.23 123.22,123.23 z" /><path
         id="path718"
         style="fill:none;stroke:#231f20;stroke-width:59.13159943;stroke-linecap:butt;stroke-linejoin:miter;stroke-miterlimit:22.92560005;stroke-dasharray:none;stroke-opacity:1"
         d="m 462.801,6494.68 c 167.164,0 302.734,-135.57 302.734,-302.73 0,-167.17 -135.57,-302.74 -302.734,-302.74 -167.164,0 -302.731,135.57 -302.731,302.74 0,167.16 135.567,302.73 302.731,302.73 z" /><path
         id="path720"
         style="fill:none;stroke:#f47216;stroke-width:44.34899902;stroke-linecap:butt;stroke-linejoin:miter;stroke-miterlimit:22.92560005;stroke-dasharray:none;stroke-opacity:1"
         d="m 462.801,6423.07 c 127.617,0 231.125,-103.51 231.125,-231.12 0,-127.62 -103.508,-231.13 -231.125,-231.13 -127.613,0 -231.121,103.51 -231.121,231.13 0,127.61 103.508,231.12 231.121,231.12 z" /><path
         id="path722"
         style="fill:none;stroke:#fff200;stroke-width:14.78320026;stroke-linecap:butt;stroke-linejoin:miter;stroke-miterlimit:22.92560005;stroke-dasharray:none;stroke-opacity:1"
         d="m 462.801,6367.73 c 97.066,0 175.781,-78.71 175.781,-175.78 0,-97.07 -78.715,-175.78 -175.781,-175.78 -97.067,0 -175.778,78.71 -175.778,175.78 0,97.07 78.711,175.78 175.778,175.78 z" /><path
         id="path724"
         style="fill:none;stroke:#231f20;stroke-width:31.08979988;stroke-linecap:butt;stroke-linejoin:miter;stroke-miterlimit:22.92560005;stroke-dasharray:none;stroke-opacity:1"
         d="m 294.27,6120.16 c 87.886,0 159.168,-71.28 159.168,-159.16 0,-87.89 -71.282,-159.17 -159.168,-159.17 -87.883,0 -159.168,71.28 -159.168,159.17 0,87.88 71.285,159.16 159.168,159.16 z" /><path
         id="path726"
         style="fill:none;stroke:#f47216;stroke-width:23.31749916;stroke-linecap:butt;stroke-linejoin:miter;stroke-miterlimit:22.92560005;stroke-dasharray:none;stroke-opacity:1"
         d="m 294.27,6082.52 c 67.097,0 121.523,-54.43 121.523,-121.52 0,-67.1 -54.426,-121.52 -121.523,-121.52 -67.094,0 -121.52,54.42 -121.52,121.52 0,67.09 54.426,121.52 121.52,121.52 z" /><path
         id="path728"
         style="fill:none;stroke:#fff200;stroke-width:7.7726202;stroke-linecap:butt;stroke-linejoin:miter;stroke-miterlimit:22.92560005;stroke-dasharray:none;stroke-opacity:1"
         d="m 294.27,6053.42 c 51.039,0 92.421,-41.38 92.421,-92.42 0,-51.04 -41.382,-92.42 -92.421,-92.42 -51.036,0 -92.418,41.38 -92.418,92.42 0,51.04 41.382,92.42 92.418,92.42 z" /><path
         id="path730"
         style="fill:#231f20;fill-opacity:1;fill-rule:evenodd;stroke:none"
         d="m 764.027,5096.5 c 220.59,0 399.483,-178.89 399.483,-399.48 0,-220.59 -178.893,-399.48 -399.483,-399.48 -220.589,0 -399.48,178.89 -399.48,399.48 0,220.59 178.891,399.48 399.48,399.48" /><path
         id="path732"
         style="fill:none;stroke:#231f20;stroke-width:78.02940369;stroke-linecap:butt;stroke-linejoin:miter;stroke-miterlimit:22.92560005;stroke-dasharray:none;stroke-opacity:1"
         d="m 764.027,5096.5 c 220.59,0 399.483,-178.89 399.483,-399.48 0,-220.59 -178.893,-399.48 -399.483,-399.48 -220.589,0 -399.48,178.89 -399.48,399.48 0,220.59 178.891,399.48 399.48,399.48 z" /><path
         id="path734"
         style="fill:#231f20;fill-opacity:1;fill-rule:evenodd;stroke:none"
         d="m 764.027,5002 c 168.411,0 304.983,-136.57 304.983,-304.98 0,-168.41 -136.572,-304.99 -304.983,-304.99 -168.406,0 -304.98,136.58 -304.98,304.99 0,168.41 136.574,304.98 304.98,304.98" /><path
         id="path736"
         style="fill:none;stroke:#f47216;stroke-width:58.5223999;stroke-linecap:butt;stroke-linejoin:miter;stroke-miterlimit:22.92560005;stroke-dasharray:none;stroke-opacity:1"
         d="m 764.027,5002 c 168.411,0 304.983,-136.57 304.983,-304.98 0,-168.41 -136.572,-304.99 -304.983,-304.99 -168.406,0 -304.98,136.58 -304.98,304.99 0,168.41 136.574,304.98 304.98,304.98 z" /><path
         id="path738"
         style="fill:#231f20;fill-opacity:1;fill-rule:evenodd;stroke:none"
         d="m 764.027,4928.97 c 128.086,0 231.957,-103.87 231.957,-231.95 0,-128.09 -103.871,-231.96 -231.957,-231.96 -128.086,0 -231.957,103.87 -231.957,231.96 0,128.08 103.871,231.95 231.957,231.95" /><path
         id="path740"
         style="fill:none;stroke:#fff200;stroke-width:19.50769997;stroke-linecap:butt;stroke-linejoin:miter;stroke-miterlimit:22.92560005;stroke-dasharray:none;stroke-opacity:1"
         d="m 764.027,4928.97 c 128.086,0 231.957,-103.87 231.957,-231.95 0,-128.09 -103.871,-231.96 -231.957,-231.96 -128.086,0 -231.957,103.87 -231.957,231.96 0,128.08 103.871,231.95 231.957,231.95 z" /><path
         id="path742"
         style="fill:#231f20;fill-opacity:1;fill-rule:evenodd;stroke:none"
         d="M 41.4727,5909.97 H 935.273 v -11.87 h 866.417 v -24.61 H 935.273 v -11.88 H 41.4727 v 48.36" /><path
         id="path744"
         style="fill:none;stroke:#231f20;stroke-width:2.16000009;stroke-linecap:butt;stroke-linejoin:miter;stroke-miterlimit:22.92560005;stroke-dasharray:none;stroke-opacity:1"
         d="M 41.4727,5909.97 H 935.273 v -11.87 h 866.417 v -24.61 H 935.273 v -11.88 H 41.4727 Z" /><path
         id="path746"
         style="fill:#231f20;fill-opacity:1;fill-rule:evenodd;stroke:none"
         d="m 613.262,5595.85 c 68.926,0 124.836,-55.91 124.836,-124.84 0,-68.93 -55.91,-124.84 -124.836,-124.84 -68.926,0 -124.836,55.91 -124.836,124.84 0,68.93 55.91,124.84 124.836,124.84" /><path
         id="path748"
         style="fill:none;stroke:#231f20;stroke-width:24.38419914;stroke-linecap:butt;stroke-linejoin:miter;stroke-miterlimit:22.92560005;stroke-dasharray:none;stroke-opacity:1"
         d="m 613.262,5595.85 c 68.926,0 124.836,-55.91 124.836,-124.84 0,-68.93 -55.91,-124.84 -124.836,-124.84 -68.926,0 -124.836,55.91 -124.836,124.84 0,68.93 55.91,124.84 124.836,124.84 z" /><path
         id="path750"
         style="fill:#231f20;fill-opacity:1;fill-rule:evenodd;stroke:none"
         d="m 613.262,5566.32 c 52.625,0 95.308,-42.69 95.308,-95.31 0,-52.63 -42.683,-95.31 -95.308,-95.31 -52.625,0 -95.309,42.68 -95.309,95.31 0,52.62 42.684,95.31 95.309,95.31" /><path
         id="path752"
         style="fill:none;stroke:#f47216;stroke-width:18.28820038;stroke-linecap:butt;stroke-linejoin:miter;stroke-miterlimit:22.92560005;stroke-dasharray:none;stroke-opacity:1"
         d="m 613.262,5566.32 c 52.625,0 95.308,-42.69 95.308,-95.31 0,-52.63 -42.683,-95.31 -95.308,-95.31 -52.625,0 -95.309,42.68 -95.309,95.31 0,52.62 42.684,95.31 95.309,95.31 z" /><path
         id="path754"
         style="fill:#231f20;fill-opacity:1;fill-rule:evenodd;stroke:none"
         d="m 613.262,5543.5 c 40.031,0 72.492,-32.46 72.492,-72.49 0,-40.03 -32.461,-72.49 -72.492,-72.49 -40.032,0 -72.492,32.46 -72.492,72.49 0,40.03 32.46,72.49 72.492,72.49" /><path
         id="path756"
         style="fill:none;stroke:#fff200;stroke-width:6.09616995;stroke-linecap:butt;stroke-linejoin:miter;stroke-miterlimit:22.92560005;stroke-dasharray:none;stroke-opacity:1"
         d="m 613.262,5543.5 c 40.031,0 72.492,-32.46 72.492,-72.49 0,-40.03 -32.461,-72.49 -72.492,-72.49 -40.032,0 -72.492,32.46 -72.492,72.49 0,40.03 32.46,72.49 72.492,72.49 z" /><path
         id="path758"
         style="fill:#231f20;fill-opacity:1;fill-rule:evenodd;stroke:none"
         d="m 809.883,5495.98 c 143.039,0 259.037,-116 259.037,-259.04 0,-143.04 -115.998,-259.04 -259.037,-259.04 -143.039,0 -259.039,116 -259.039,259.04 0,143.04 116,259.04 259.039,259.04" /><path
         id="path760"
         style="fill:none;stroke:#231f20;stroke-width:50.59719849;stroke-linecap:butt;stroke-linejoin:miter;stroke-miterlimit:22.92560005;stroke-dasharray:none;stroke-opacity:1"
         d="m 809.883,5495.98 c 143.039,0 259.037,-116 259.037,-259.04 0,-143.04 -115.998,-259.04 -259.037,-259.04 -143.039,0 -259.039,116 -259.039,259.04 0,143.04 116,259.04 259.039,259.04 z" /><path
         id="path762"
         style="fill:#231f20;fill-opacity:1;fill-rule:evenodd;stroke:none"
         d="m 809.883,5434.7 c 109.199,0 197.757,-88.56 197.757,-197.76 0,-109.2 -88.558,-197.76 -197.757,-197.76 -109.203,0 -197.762,88.56 -197.762,197.76 0,109.2 88.559,197.76 197.762,197.76" /><path
         id="path764"
         style="fill:none;stroke:#f47216;stroke-width:37.94810104;stroke-linecap:butt;stroke-linejoin:miter;stroke-miterlimit:22.92560005;stroke-dasharray:none;stroke-opacity:1"
         d="m 809.883,5434.7 c 109.199,0 197.757,-88.56 197.757,-197.76 0,-109.2 -88.558,-197.76 -197.757,-197.76 -109.203,0 -197.762,88.56 -197.762,197.76 0,109.2 88.559,197.76 197.762,197.76 z" /><path
         id="path766"
         style="fill:#231f20;fill-opacity:1;fill-rule:evenodd;stroke:none"
         d="m 809.883,5387.35 c 83.055,0 150.406,-67.36 150.406,-150.41 0,-83.06 -67.351,-150.41 -150.406,-150.41 -83.059,0 -150.41,67.35 -150.41,150.41 0,83.05 67.351,150.41 150.41,150.41" /><path
         id="path768"
         style="fill:none;stroke:#fff200;stroke-width:12.64960003;stroke-linecap:butt;stroke-linejoin:miter;stroke-miterlimit:22.92560005;stroke-dasharray:none;stroke-opacity:1"
         d="m 809.883,5387.35 c 83.055,0 150.406,-67.36 150.406,-150.41 0,-83.06 -67.351,-150.41 -150.406,-150.41 -83.059,0 -150.41,67.35 -150.41,150.41 0,83.05 67.351,150.41 150.41,150.41 z" /><path
         id="path770"
         style="fill:none;stroke:#231f20;stroke-width:113.38600159;stroke-linecap:butt;stroke-linejoin:miter;stroke-miterlimit:22.92560005;stroke-dasharray:none;stroke-opacity:1"
         d="m 3886.48,6582.07 c 320.54,0 580.49,-259.96 580.49,-580.5 0,-320.54 -259.95,-580.5 -580.49,-580.5 -320.55,0 -580.5,259.96 -580.5,580.5 0,320.54 259.95,580.5 580.5,580.5 z" /><path
         id="path772"
         style="fill:none;stroke:#f47216;stroke-width:85.04029846;stroke-linecap:butt;stroke-linejoin:miter;stroke-miterlimit:22.92560005;stroke-dasharray:none;stroke-opacity:1"
         d="m 3886.48,6444.74 c 244.71,0 443.17,-198.46 443.17,-443.17 0,-244.71 -198.46,-443.18 -443.17,-443.18 -244.71,0 -443.18,198.47 -443.18,443.18 0,244.71 198.47,443.17 443.18,443.17 z" /><path
         id="path774"
         style="fill:none;stroke:#fff200;stroke-width:28.34720039;stroke-linecap:butt;stroke-linejoin:miter;stroke-miterlimit:22.92560005;stroke-dasharray:none;stroke-opacity:1"
         d="m 3886.48,6338.63 c 186.12,0 337.06,-150.94 337.06,-337.06 0,-186.11 -150.94,-337.06 -337.06,-337.06 -186.11,0 -337.06,150.95 -337.06,337.06 0,186.12 150.95,337.06 337.06,337.06 z" /><path
         id="path776"
         style="fill:none;stroke:#231f20;stroke-width:41.4530983;stroke-linecap:butt;stroke-linejoin:miter;stroke-miterlimit:22.92560005;stroke-dasharray:none;stroke-opacity:1"
         d="m 2569.44,6269.97 c 117.19,0 212.22,-95.04 212.22,-212.22 0,-117.19 -95.03,-212.23 -212.22,-212.23 -117.19,0 -212.23,95.04 -212.23,212.23 0,117.18 95.04,212.22 212.23,212.22 z" /><path
         id="path778"
         style="fill:none;stroke:#f47216;stroke-width:31.09000015;stroke-linecap:butt;stroke-linejoin:miter;stroke-miterlimit:22.92560005;stroke-dasharray:none;stroke-opacity:1"
         d="m 2569.44,6219.78 c 89.47,0 162.03,-72.57 162.03,-162.03 0,-89.47 -72.56,-162.03 -162.03,-162.03 -89.47,0 -162.03,72.56 -162.03,162.03 0,89.46 72.56,162.03 162.03,162.03 z" /><path
         id="path780"
         style="fill:none;stroke:#fff200;stroke-width:10.36349964;stroke-linecap:butt;stroke-linejoin:miter;stroke-miterlimit:22.92560005;stroke-dasharray:none;stroke-opacity:1"
         d="m 2569.44,6180.98 c 68.04,0 123.23,-55.19 123.23,-123.23 0,-68.04 -55.19,-123.23 -123.23,-123.23 -68.03,0 -123.23,55.19 -123.23,123.23 0,68.04 55.2,123.23 123.23,123.23 z" /><path
         id="path782"
         style="fill:none;stroke:#231f20;stroke-width:26.82259941;stroke-linecap:butt;stroke-linejoin:miter;stroke-miterlimit:22.92560005;stroke-dasharray:none;stroke-opacity:1"
         d="m 2819.11,6332.39 c 75.83,0 137.33,-61.5 137.33,-137.32 0,-75.82 -61.5,-137.32 -137.33,-137.32 -75.82,0 -137.32,61.5 -137.32,137.32 0,75.82 61.5,137.32 137.32,137.32 z" /><path
         id="path784"
         style="fill:none;stroke:#f47216;stroke-width:20.11709976;stroke-linecap:butt;stroke-linejoin:miter;stroke-miterlimit:22.92560005;stroke-dasharray:none;stroke-opacity:1"
         d="m 2819.11,6299.92 c 57.9,0 104.85,-46.96 104.85,-104.85 0,-57.89 -46.95,-104.84 -104.85,-104.84 -57.89,0 -104.84,46.95 -104.84,104.84 0,57.89 46.95,104.85 104.84,104.85 z" /><path
         id="path786"
         style="fill:none;stroke:#fff200;stroke-width:6.70579004;stroke-linecap:butt;stroke-linejoin:miter;stroke-miterlimit:22.92560005;stroke-dasharray:none;stroke-opacity:1"
         d="m 2819.11,6274.8 c 44.03,0 79.74,-35.7 79.74,-79.73 0,-44.02 -35.71,-79.74 -79.74,-79.74 -44.01,0 -79.73,35.72 -79.73,79.74 0,44.03 35.72,79.73 79.73,79.73 z" /><path
         id="path788"
         style="fill:none;stroke:#231f20;stroke-width:83.51580048;stroke-linecap:butt;stroke-linejoin:miter;stroke-miterlimit:22.92560005;stroke-dasharray:none;stroke-opacity:1"
         d="m 3483.88,6819.26 c 236.1,0 427.57,-191.47 427.57,-427.57 0,-236.1 -191.47,-427.57 -427.57,-427.57 -236.1,0 -427.57,191.47 -427.57,427.57 0,236.1 191.47,427.57 427.57,427.57 z" /><path
         id="path790"
         style="fill:none;stroke:#f47216;stroke-width:62.6371994;stroke-linecap:butt;stroke-linejoin:miter;stroke-miterlimit:22.92560005;stroke-dasharray:none;stroke-opacity:1"
         d="m 3483.88,6718.11 c 180.25,0 326.42,-146.17 326.42,-326.42 0,-180.25 -146.17,-326.42 -326.42,-326.42 -180.25,0 -326.43,146.17 -326.43,326.42 0,180.25 146.18,326.42 326.43,326.42 z" /><path
         id="path792"
         style="fill:none;stroke:#fff200;stroke-width:20.87940025;stroke-linecap:butt;stroke-linejoin:miter;stroke-miterlimit:22.92560005;stroke-dasharray:none;stroke-opacity:1"
         d="m 3483.88,6639.96 c 137.09,0 248.26,-111.18 248.26,-248.27 0,-137.09 -111.17,-248.27 -248.26,-248.27 -137.09,0 -248.27,111.18 -248.27,248.27 0,137.09 111.18,248.27 248.27,248.27 z" /><path
         id="path794"
         style="fill:#f47216;fill-opacity:1;fill-rule:evenodd;stroke:none"
         d="m 4404.55,5620.82 c 117.19,0 212.23,-95.05 212.23,-212.23 0,-117.18 -95.04,-212.22 -212.23,-212.22 -117.18,0 -212.22,95.04 -212.22,212.22 0,117.18 95.04,212.23 212.22,212.23" /><path
         id="path796"
         style="fill:none;stroke:#231f20;stroke-width:41.4530983;stroke-linecap:butt;stroke-linejoin:miter;stroke-miterlimit:22.92560005;stroke-dasharray:none;stroke-opacity:1"
         d="m 4404.55,5620.82 c 117.19,0 212.23,-95.05 212.23,-212.23 0,-117.18 -95.04,-212.22 -212.23,-212.22 -117.18,0 -212.22,95.04 -212.22,212.22 0,117.18 95.04,212.23 212.22,212.23 z" /><path
         id="path798"
         style="fill:#f47216;fill-opacity:1;fill-rule:evenodd;stroke:none"
         d="m 4404.55,5570.63 c 89.47,0 162.04,-72.57 162.04,-162.04 0,-89.46 -72.57,-162.03 -162.04,-162.03 -89.46,0 -162.02,72.57 -162.02,162.03 0,89.47 72.56,162.04 162.02,162.04" /><path
         id="path800"
         style="fill:none;stroke:#f47216;stroke-width:31.09000015;stroke-linecap:butt;stroke-linejoin:miter;stroke-miterlimit:22.92560005;stroke-dasharray:none;stroke-opacity:1"
         d="m 4404.55,5570.63 c 89.47,0 162.04,-72.57 162.04,-162.04 0,-89.46 -72.57,-162.03 -162.04,-162.03 -89.46,0 -162.02,72.57 -162.02,162.03 0,89.47 72.56,162.04 162.02,162.04 z" /><path
         id="path802"
         style="fill:#f47216;fill-opacity:1;fill-rule:evenodd;stroke:none"
         d="m 4404.55,5531.82 c 68.05,0 123.23,-55.18 123.23,-123.23 0,-68.04 -55.18,-123.23 -123.23,-123.23 -68.03,0 -123.22,55.19 -123.22,123.23 0,68.05 55.19,123.23 123.22,123.23" /><path
         id="path804"
         style="fill:none;stroke:#fff200;stroke-width:10.36349964;stroke-linecap:butt;stroke-linejoin:miter;stroke-miterlimit:22.92560005;stroke-dasharray:none;stroke-opacity:1"
         d="m 4404.55,5531.82 c 68.05,0 123.23,-55.18 123.23,-123.23 0,-68.04 -55.18,-123.23 -123.23,-123.23 -68.03,0 -123.22,55.19 -123.22,123.23 0,68.05 55.19,123.23 123.22,123.23 z" /><path
         id="path806"
         style="fill:#f47216;fill-opacity:1;fill-rule:evenodd;stroke:none"
         d="m 4257.87,5308.72 c 60.32,0 109.24,-48.92 109.24,-109.23 0,-60.32 -48.92,-109.24 -109.24,-109.24 -60.32,0 -109.23,48.92 -109.23,109.24 0,60.31 48.91,109.23 109.23,109.23" /><path
         id="path808"
         style="fill:none;stroke:#231f20;stroke-width:21.33620071;stroke-linecap:butt;stroke-linejoin:miter;stroke-miterlimit:22.92560005;stroke-dasharray:none;stroke-opacity:1"
         d="m 4257.87,5308.72 c 60.32,0 109.24,-48.92 109.24,-109.23 0,-60.32 -48.92,-109.24 -109.24,-109.24 -60.32,0 -109.23,48.92 -109.23,109.24 0,60.31 48.91,109.23 109.23,109.23 z" /><path
         id="path810"
         style="fill:#f47216;fill-opacity:1;fill-rule:evenodd;stroke:none"
         d="m 4257.87,5282.89 c 46.06,0 83.4,-37.35 83.4,-83.4 0,-46.05 -37.34,-83.4 -83.4,-83.4 -46.05,0 -83.4,37.35 -83.4,83.4 0,46.05 37.35,83.4 83.4,83.4" /><path
         id="path812"
         style="fill:none;stroke:#f47216;stroke-width:16.00219917;stroke-linecap:butt;stroke-linejoin:miter;stroke-miterlimit:22.92560005;stroke-dasharray:none;stroke-opacity:1"
         d="m 4257.87,5282.89 c 46.06,0 83.4,-37.35 83.4,-83.4 0,-46.05 -37.34,-83.4 -83.4,-83.4 -46.05,0 -83.4,37.35 -83.4,83.4 0,46.05 37.35,83.4 83.4,83.4 z" /><path
         id="path814"
         style="fill:#f47216;fill-opacity:1;fill-rule:evenodd;stroke:none"
         d="m 4257.87,5262.92 c 35.02,0 63.43,-28.41 63.43,-63.43 0,-35.02 -28.41,-63.44 -63.43,-63.44 -35.01,0 -63.43,28.42 -63.43,63.44 0,35.02 28.42,63.43 63.43,63.43" /><path
         id="path816"
         style="fill:none;stroke:#fff200;stroke-width:5.33414984;stroke-linecap:butt;stroke-linejoin:miter;stroke-miterlimit:22.92560005;stroke-dasharray:none;stroke-opacity:1"
         d="m 4257.87,5262.92 c 35.02,0 63.43,-28.41 63.43,-63.43 0,-35.02 -28.41,-63.44 -63.43,-63.44 -35.01,0 -63.43,28.42 -63.43,63.44 0,35.02 28.42,63.43 63.43,63.43 z" /><path
         id="path818"
         style="fill:none;stroke:#231f20;stroke-width:71.9332962;stroke-linecap:butt;stroke-linejoin:miter;stroke-miterlimit:22.92560005;stroke-dasharray:none;stroke-opacity:1"
         d="m 5603.8,841.824 c 203.36,0 368.27,-164.914 368.27,-368.273 0,-203.356 -164.91,-368.27 -368.27,-368.27 -203.36,0 -368.27,164.914 -368.27,368.27 0,203.359 164.91,368.273 368.27,368.273 z" /><path
         id="path820"
         style="fill:none;stroke:#f47216;stroke-width:53.95029831;stroke-linecap:butt;stroke-linejoin:miter;stroke-miterlimit:22.92560005;stroke-dasharray:none;stroke-opacity:1"
         d="m 5603.8,754.707 c 155.25,0 281.15,-125.91 281.15,-281.156 0,-155.246 -125.9,-281.153 -281.15,-281.153 -155.25,0 -281.16,125.907 -281.16,281.153 0,155.246 125.91,281.156 281.16,281.156 z" /><path
         id="path822"
         style="fill:none;stroke:#fff200;stroke-width:17.9836998;stroke-linecap:butt;stroke-linejoin:miter;stroke-miterlimit:22.92560005;stroke-dasharray:none;stroke-opacity:1"
         d="m 5603.8,687.391 c 118.08,0 213.84,-95.762 213.84,-213.84 0,-118.067 -95.76,-213.844 -213.84,-213.844 -118.07,0 -213.84,95.777 -213.84,213.844 0,118.078 95.77,213.84 213.84,213.84 z" /><path
         id="path824"
         style="fill:none;stroke:#231f20;stroke-width:55.47399902;stroke-linecap:butt;stroke-linejoin:miter;stroke-miterlimit:22.92560005;stroke-dasharray:none;stroke-opacity:1"
         d="m 5092.36,599.512 c 156.83,0 284.01,-127.18 284.01,-284.008 0,-156.824 -127.18,-284.004 -284.01,-284.004 -156.82,0 -284,127.18 -284,284.004 0,156.828 127.18,284.008 284,284.008 z" /><path
         id="path826"
         style="fill:none;stroke:#f47216;stroke-width:41.60570145;stroke-linecap:butt;stroke-linejoin:miter;stroke-miterlimit:22.92560005;stroke-dasharray:none;stroke-opacity:1"
         d="m 5092.36,532.332 c 119.73,0 216.83,-97.102 216.83,-216.828 0,-119.723 -97.1,-216.8243 -216.83,-216.8243 -119.72,0 -216.82,97.1013 -216.82,216.8243 0,119.726 97.1,216.828 216.82,216.828 z" /><path
         id="path828"
         style="fill:none;stroke:#fff200;stroke-width:13.86880016;stroke-linecap:butt;stroke-linejoin:miter;stroke-miterlimit:22.92560005;stroke-dasharray:none;stroke-opacity:1"
         d="m 5092.36,480.418 c 91.06,0 164.91,-73.852 164.91,-164.914 0,-91.051 -73.85,-164.91 -164.91,-164.91 -91.05,0 -164.91,73.859 -164.91,164.91 0,91.062 73.86,164.914 164.91,164.914 z" /><path
         id="path830"
         style="fill:none;stroke:#231f20;stroke-width:39.6242981;stroke-linecap:butt;stroke-linejoin:miter;stroke-miterlimit:22.92560005;stroke-dasharray:none;stroke-opacity:1"
         d="m 4749.38,537.094 c 112.02,0 202.86,-90.844 202.86,-202.864 0,-112.015 -90.84,-202.859 -202.86,-202.859 -112.02,0 -202.86,90.844 -202.86,202.859 0,112.02 90.84,202.864 202.86,202.864 z" /><path
         id="path832"
         style="fill:none;stroke:#f47216;stroke-width:29.71839905;stroke-linecap:butt;stroke-linejoin:miter;stroke-miterlimit:22.92560005;stroke-dasharray:none;stroke-opacity:1"
         d="m 4749.38,489.105 c 85.52,0 154.87,-69.355 154.87,-154.875 0,-85.515 -69.35,-154.871 -154.87,-154.871 -85.52,0 -154.87,69.356 -154.87,154.871 0,85.52 69.35,154.875 154.87,154.875 z" /><path
         id="path834"
         style="fill:none;stroke:#fff200;stroke-width:9.90627003;stroke-linecap:butt;stroke-linejoin:miter;stroke-miterlimit:22.92560005;stroke-dasharray:none;stroke-opacity:1"
         d="m 4749.38,452.023 c 65.05,0 117.79,-52.75 117.79,-117.793 0,-65.035 -52.74,-117.789 -117.79,-117.789 -65.03,0 -117.79,52.754 -117.79,117.789 0,65.043 52.76,117.793 117.79,117.793 z" /><path
         id="path836"
         style="fill:#231f20;fill-opacity:1;fill-rule:evenodd;stroke:none"
         d="m 5853.01,1349.91 c 155.11,0 280.89,-125.78 280.89,-280.88 0,-155.108 -125.78,-280.889 -280.89,-280.889 -155.1,0 -280.88,125.781 -280.88,280.889 0,155.1 125.78,280.88 280.88,280.88" /><path
         id="path838"
         style="fill:none;stroke:#231f20;stroke-width:54.86439896;stroke-linecap:butt;stroke-linejoin:miter;stroke-miterlimit:22.92560005;stroke-dasharray:none;stroke-opacity:1"
         d="m 5853.01,1349.91 c 155.11,0 280.89,-125.78 280.89,-280.88 0,-155.108 -125.78,-280.889 -280.89,-280.889 -155.1,0 -280.88,125.781 -280.88,280.889 0,155.1 125.78,280.88 280.88,280.88 z" /><path
         id="path840"
         style="fill:#231f20;fill-opacity:1;fill-rule:evenodd;stroke:none"
         d="m 5853.01,1283.46 c 118.42,0 214.44,-96.02 214.44,-214.43 0,-118.421 -96.02,-214.444 -214.44,-214.444 -118.41,0 -214.44,96.023 -214.44,214.444 0,118.41 96.03,214.43 214.44,214.43" /><path
         id="path842"
         style="fill:none;stroke:#f47216;stroke-width:41.14849854;stroke-linecap:butt;stroke-linejoin:miter;stroke-miterlimit:22.92560005;stroke-dasharray:none;stroke-opacity:1"
         d="m 5853.01,1283.46 c 118.42,0 214.44,-96.02 214.44,-214.43 0,-118.421 -96.02,-214.444 -214.44,-214.444 -118.41,0 -214.44,96.023 -214.44,214.444 0,118.41 96.03,214.43 214.44,214.43 z" /><path
         id="path844"
         style="fill:#231f20;fill-opacity:1;fill-rule:evenodd;stroke:none"
         d="m 5853.01,1232.12 c 90.07,0 163.1,-73.03 163.1,-163.09 0,-90.065 -73.03,-163.1 -163.1,-163.1 -90.06,0 -163.09,73.035 -163.09,163.1 0,90.06 73.03,163.09 163.09,163.09" /><path
         id="path846"
         style="fill:none;stroke:#fff200;stroke-width:13.71640015;stroke-linecap:butt;stroke-linejoin:miter;stroke-miterlimit:22.92560005;stroke-dasharray:none;stroke-opacity:1"
         d="m 5853.01,1232.12 c 90.07,0 163.1,-73.03 163.1,-163.09 0,-90.065 -73.03,-163.1 -163.1,-163.1 -90.06,0 -163.09,73.035 -163.09,163.1 0,90.06 73.03,163.09 163.09,163.09 z" /></g></g></svg>